<?xml version="1.0" encoding="UTF-8"?>
<svg xmlns="http://www.w3.org/2000/svg" width="3260" height="3500" xmlns:xlink="http://www.w3.org/1999/xlink" viewBox="0 0 3260 3500" class="svg-map map_streets" data-v-c1b9bbed=""><defs><filter id="drop-shadow-1" filterUnits="userSpaceOnUse"><feOffset dx="5" dy="5"></feOffset><feGaussianBlur result="blur" stdDeviation="5"></feGaussianBlur><feFlood flood-color="#000" flood-opacity=".75"></feFlood><feComposite in2="blur" operator="in"></feComposite><feComposite in="SourceGraphic"></feComposite></filter></defs><g id="wrapper"><rect width="3260" height="3500" style="fill:none;"></rect></g><g id="map-bg"><rect id="inner" x="1000" y="1000" width="1260" height="1500" style="fill:#3a3e48;"></rect></g><g id="roads"><path d="m2242.26,1556.51h16.06v-49.7h-32.38c-6.26,0-12.38-.6-18.32-1.72l-.02.04-366.83-68.55,1.05-5.6,7.16,1.34,5.54-29.64-108.37-20.25-5.54,29.64,4.64.87-1.05,5.59-57.9-10.82h-10.72c-5.52,0-10-4.48-10-10v-232.13h96.58l6.59,6.03c1.54,1.4,2.89,3,4.02,4.75l3.28,5.06,29.71-19.65-1.84-19.21h-3.11v-13.62h-41.6v27.35h-93.63v-140.77h-55.04v382.17c0,5.54-4.48,10.02-10,10.02h-362.7v-166.92h21.29v.56h6.81c1.08,0,1.96.89,1.96,1.97v6.07c0,1.08-.88,1.96-1.96,1.96h-6.81v121.97h68.13v-144.13h-58.45v-25.32h-11.55v25.32h-19.42v-33.77h-23.9v168.08h-7.84v-145.4h-8.13v130.64h-36.39v29.52h52.36v29.45h-129.2v25.27c0-1.65,1.35-3,3-3h79.1c1.66,0,3,1.35,3,3,0,.83-.34,1.58-.88,2.12s-1.29.88-2.12.88h-79.1c-1.65,0-3-1.34-3-2.99v26.98h305.14c5.52,0,10,4.48,10,10v7.04h14.9v-17.04h57.32v.04l6.52,6.5h56.82l6.54-6.54h58.56c5.52,0,10,4.48,10,10v77.28l-6.5,6.5v47.38l6.5,6.5v78.8c0,5.54-4.48,10.02-10,10.02h-33.12v10.44h33.12c5.52,0,10,4.48,10,10v179.84c0,5.52-4.48,10-10,10h-108.78c-2.2,0-4-1.8-4-4v-55.98c0-2.2,1.8-4,4-4h29.9v13.08h31.38v-5.24h2.66v-10.48h-2.66v-13.04h-14.26v3.94h-156.86v11.74h92.7c2.2,0,4,1.8,4,4v55.98c0,2.22-1.8,4-4,4h-132.3c-5.48,0-9.94-4.42-10-9.9.02-.04.02-.06,0-.1.02-.56.02-1.18.04-1.84.02-1,.04-2.24.04-3.66.06-6.42.14-17.18.92-27.56l.06-1c.34-4.8,1.34-19.46,5.46-38.38,3.72-17.02,8.96-33.58,15.6-49.2l.24-.56c.78-1.84,1.94-4.32,3.42-7.46,1.82-3.86,4.1-8.66,6.86-14.84,1.12-2.54,2.16-4.76,3.12-6.86,1.78-3.86,3.32-7.22,4.94-11.16,7.72-18.98,12.54-29.88,16.42-38.62l2.36-5.36c6.02-13.74,8.08-20.22,10.7-28.42.56-1.76,1.16-3.64,1.82-5.68,2.76-8.44,3.82-14.88,4.44-18.72.16-.94.32-1.86.48-2.76.8-4.64,1.62-9.42,2.1-18.86.6-12.04.9-18.1,1.1-26.12.36-14.06.5-28.7.44-43.42h84.14c4.72,0,8.78,3.3,9.76,7.9l7.24,34.02h-45.9v-2.78h-4.02v28.78h6.7v-3.92h10.44v-3.92h36.64l6.92,32.64h-3.08v32.66h-11.74v32.54h11.74v76.38c0,3.3-2.7,6-6,6h-38.4v-76.96h5.22v-44.5h-3.92v-11.82h18.28v-3.94h-14.38v-10.38h-6.54v-3.92h-10.44v14.38h-13.22l-8.04,19.42,25.1,10.3-10.46,25.54-25.22-10.34-17.3,41.74,21.98,9v59.82h36.28v-5.24h64.12v11.66h7.82v-11.66h3.84v-17h-18.28v-71.76c0-2.22,1.8-4,4-4h14.3v-10.44h-14.3c-2.2,0-4-1.8-4-4v-72.94l-10.44-49.14v-46.36h-101.9v1.32h-13.04v-2.82h-6.9v23.74h4.34l-4.34.02c0,2.2.02,4.38.02,6.56,0,12.4-.16,24.66-.44,36.52-.2,7.86-.5,13.84-1.12,25.98-.42,8.46-1.14,12.66-1.92,17.1-.16.94-.32,1.9-.48,2.88-.78,4.7-1.72,9.88-3.98,16.78-.68,2.08-1.28,3.98-1.84,5.78-2.6,8.14-4.48,14.02-10.22,27.14l-2.36,5.3c-3.9,8.84-8.76,19.84-16.56,38.98-1.5,3.7-3,6.92-4.72,10.66-.98,2.12-2.02,4.4-3.18,6.98-2.7,6.04-4.94,10.78-6.72,14.6-.46.96-1,2.12-1.52,3.24-1.36,3-4.92,4.32-7.92,2.96l-25.16-11.42h-.02l-8.24,9,29.52,13.46c2.84,1.3,4.2,4.56,3.14,7.52-4.04,11.42-7.4,23.22-10.02,35.24-4.34,19.86-5.38,35.22-5.72,40.26l-.06.92c-.82,10.82-.9,21.84-.96,28.42,0,1.26-.02,2.38-.02,3.32h-.14v2.28c0,5.52-4.48,10-10,10h-288.56v22.26h51.29l.11,311.46h-55.23v14h55.24l.05,146.22-26.36,14.89,8.12,14.36,256.74-144.96,79.72,135.3,9.48-5.58-79.62-135.13.1-.06,92.65-53.55,19.72,33.84-30.55,17.8,20.2,34.67,16.85-9.82,7,12.03,7.55,12.96h.01l3.63,6.24,31.23-18.2-3.64-6.23,82.55-48.06,22.12-12.72h10.92c5.52,0,10,4.48,10,10v182.56h54.84v-122.96c0-5.52,4.48-10,10-10h523.04c5.52,0,10,4.48,10,10v141.2h23.82v-593.6c0-5.52,4.48-10,10-10h6.72l9.34,2.58v-38.92h-16.06c-5.52,0-10-4.48-10-10v-242.8c0-5.52,4.48-10,10-10Zm-959.26-313.19c0-1.08.88-1.97,1.97-1.97h29.61c1.09,0,1.97.89,1.97,1.97v6.07c0,1.08-.88,1.96-1.97,1.96h-8.68v107.75c0,1.08-.88,1.96-1.96,1.96h-8.07c-1.09,0-1.97-.88-1.97-1.96v-107.75h-8.93c-1.09,0-1.97-.88-1.97-1.96v-6.07Zm307.58,192.66h-336.45c-1.66,0-3-1.34-3-3,0-.82.33-1.58.88-2.12.54-.54,1.29-.88,2.12-.88h336.45c1.66,0,3,1.35,3,3,0,1.66-1.34,3-3,3Zm312.29,39.54c.29-1.63,1.85-2.72,3.48-2.43l292.54,51.98c1.63.29,2.72,1.85,2.43,3.48-.29,1.63-1.84,2.72-3.48,2.43l-292.54-51.99c-1.63-.29-2.72-1.84-2.43-3.47Zm-103.93-52.55l31.53,5.89-1.04,5.6-31.54-5.9,1.05-5.59Zm-39.29-7.34l31.32,5.85-1.05,5.59-31.32-5.85,1.05-5.59Zm-85.04,19.43c.29-1.63,1.85-2.72,3.48-2.43l193.64,34.06c1.63.28,2.72,1.84,2.43,3.47-.26,1.46-1.53,2.48-2.96,2.48-.17,0-.34-.01-.51-.04l-193.64-34.06c-1.63-.29-2.72-1.84-2.44-3.48Zm-9.21,426.87c0-5.54,4.48-10,10-10h410.74c12.8,0,23.18,10.38,23.18,23.18,0,1.9-.44,3.76-1.28,5.46l-122.34,245.3c-2.16,4.34-6.62,7.1-11.48,7.1h-298.82c-5.52,0-10-4.48-10-10v-261.04Zm-97.88,67.06h33.02c5.54,0,10,4.48,10,10v21.34c0,4.82-3.4,8.84-7.94,9.78v46.72c4.54.96,7.94,4.98,7.94,9.8v41.88h-20.9v-121.24h-22.12v-18.28Zm-61.52,20.86h3.96v-10.86c0-5.52,4.48-10,10-10h24.44c5.52,0,10,4.48,10,10v20.08h11.4v37.94c3.58,0,6.48,2.9,6.48,6.48s-2.9,6.48-6.48,6.48v41.26c0,8.98-5.94,16.6-14.1,19.1v31.02h22.24v20.94h15.7v-39.18h20.9v39.86c0,5.52-4.46,10-10,10h-34.92l-34.28,8.6c-1.04.26-2.08.38-3.12.38-4.9,0-9.42-2.84-11.52-7.28l-4.9-9.14,12.58-8.46v-45.84h-31.44v-5.06h24.18v-17.06h-4.54v-24.78h4.54v-47.06h4.64v-22.26h-15.76v-5.16Zm-191.94-16.86c0-2.2,1.8-4,4-4h109.54c2.22,0,4,1.8,4,4v26.02h-6.54v-11.76h-104.48v11.76h-6.52v-26.02Zm-2.88,58.22c0-5.52,4.48-9.98,9.98-9.98h122.34v-42.24c0-5.52,4.48-10,10-10h34.3c5.52,0,10,4.48,10,10v10.9h1.66v5.14h-13.2v56.24h17.16v-17h-6.52v-5.2h13.02v27.42h-23.66v55.76h-33.82v13.42h2.68v-5.14h6.48v11.66h-6.48v-3.88h-2.68v27.46h6.58v24.8h-6.58v18.28h2.26l.34-.2v-4.08l12.56-3.18,26.68-15.38-10.06-17.42-3.32,1.92c-.96.56-2.18.24-2.74-.72l-5.7-9.86c-.16-.3-.28-.64-.32-.98-.02-.1-.02-.2-.02-.3v-25.52h6.52v25.78l3.56,6.18,3.04-1.76c.96-.54,2.18-.22,2.74.74l11.08,19.18.02-.02,8.36,14.48c1.1,1.92.44,4.36-1.46,5.46l-52.76,30.46c-1.92,1.1-4.36.46-5.46-1.46l-2.76-4.8c-1-1.72-1.48-3.58-1.5-5.44v-129.34h-41.98v18.26h-37.88v-5.48h-33.94v1.58c0,3.6-2.94,6.52-6.54,6.52s-6.52-2.92-6.52-6.52v-65.28h-5.46v-.46Zm-227.04,402.68l-.05-116.48,205.67.33-205.62,116.15Zm265.66-150.54l-37.76,21.8-2.87,1.62-16.19-.03-6.05-6.14h-43.39l-5.96,6.05-77.79-.12-5.93-5.93h-44.07l-5.85,5.84-19.85-.03-.06-168.96h7.91v.02h56.12c2.2,0,4,1.8,4,4v91.32h41.7c2.2,0,4,1.8,4,4v10.38h10.46v-10.38c0-2.2,1.8-4,4-4h113l26.04,45.1c1.1,1.9.46,4.36-1.46,5.46Zm-188.6-64.98v-76.9c0-2.2,1.8-4,4-4h157.88c2.2,0,4,1.8,4,4v76.9c0,2.22-1.8,4-4,4h-157.88c-2.2,0-4-1.78-4-4Zm250.8,29.08l-44.88,25.9c-1.92,1.1-4.38.46-5.48-1.46l-25.4-44.02v-86.38c0-2.22,1.78-4.02,4-4.02h61.28v95.32h10.48v14.66Zm-6.2-119.12h-313.86v.02h-7.91l-.06-159.36h209.61c5.52,0,10,4.48,10,10v138.84h115.02v7.94h15.62v106.32c0,2.52-2.06,4.58-4.58,4.58-2.54,0-4.58-2.06-4.58-4.58v-84.5l-19.26-19.26Zm199.76,133.5l-45.64,26.36-56.28,32.79-7-12.03-29.24,17.04-20.2-34.66-1.28.74-19.72-33.84,107.9-62.42c7.28-4.2,15.42-6.62,23.8-7.08.64-.06,1.3-.1,1.96-.1h40.68c5.52,0,10,4.48,10,10v13.62l.02,40.92c0,3.58-1.9,6.88-5,8.66Zm340.64,61.64c0,5.54-4.48,10-10,10h-261.3c-5.54,0-10-4.46-10-10v-124.84c0-5.54,4.46-10,10-10h261.3c5.52,0,10,4.46,10,10v124.84Zm262.1,0c0,5.54-4.48,10-10,10h-225.5c-5.52,0-10-4.46-10-10v-124.84c0-5.54,4.48-10,10-10h225.5c5.52,0,10,4.46,10,10v124.84Zm0-160.5c0,5.52-4.48,10-10,10h-148.56c-16.56,0-30-13.44-30-30v-8.64l115.24-231.06.44-.88c3.38-6.24,9.98-10.46,17.58-10.46h55.3v271.04Zm0-313.66c0,5.52-4.48,10-10,10h-14.22l-5.28-5.3h-39.1l-5.3,5.3h-5.2c-3.32,0-6-2.68-6-6v-41.92h-12v41.92c0,3.32-2.68,6-6,6h-4.76l-5.3-5.3h-39.1l-5.3,5.3h-9.16l-5.28-5.3h-39.12l-5.28,5.3h-99.04c-6.22,0-10.92-5.6-9.86-11.72l10.74-61.24c1.32-8.16,4.36-19.76,11.6-28.36,4.24-5.02,8.46-8.68,8.46-8.68,5.96-5.18,8.96-7.76,10.74-8.92.6-.38,2.1-1.32,3.44-3.08.32-.42,1.3-1.78,1.94-3.88.72-2.32.62-4.26.46-6.4-.22-2.74-.58-6.3-1.26-10.5l-6.3-81.42-.22-.68c-.44-1.34-1-2.62-1.68-3.82-.18-.34-.58-1-1.18-1.84-3.74-5.16-5.4-11.52-4.34-17.8l.04-.2-11.84-1.96-.32,1.84c-.92,5.44-5.9,9.26-11.4,8.72l-.08-.02-1.98-.32-12.26-2.06-12.94-2.16-18.06-3.02-72.82-12.16-5.08-.6-20.56,18.74v16.46l15.54,5.2-9.42,59.5c-.66,3.58-1.1,6.64-1.38,8.94-.26,2.12-.5,3.96-.64,6.44-.16,3-.12,5.54-.06,7.4v22.28h12.06c.42-.92,1.1-2.22,2.22-3.56.62-.76,1.18-1.42,2.1-2.02.78-.5,1.82-.98,4.42-1.24,2.84-.3,5.04-.12,5.26-.1,5.08.48,10,1.32,12.46,1.74l30.98,5.76,17.98,3.34,23.72,4.4c10.78,2,17.96,12.32,16.06,23.12l-4.78,27.22-23.82-4.32-3.76,20.76,23.94,4.34-4.82,27.6c-.84,4.78-5,8.28-9.86,8.28h-180.88c-5.54,0-10.02-4.48-10.02-10.02v-335.28c0-6.22,5.62-10.94,11.76-9.84l57.76,10.2,4.96,7.08,57.52,10.08,7.02-4.92,103.9,18.32c3.24.56,5.42,3.64,4.86,6.88l-2.14,12.7,11.84,1.96,2.1-12.46c.56-3.3,3.68-5.5,6.98-4.92l1.12.2,2.98,13.2,46.3,8.12,8.76-11.1,6.82,1.2c3.3.58,5.48,3.74,4.86,7.02l-6.18,32.9c-.3,1.66-1.9,2.74-3.56,2.44l-3.46,17.96c1.12.98,2.16,2.02,3.08,3.14.34.38.64.78.94,1.18,3.32,4.46,5.24,9.98,5.24,15.78,0,1.6-.14,3.22-.44,4.84l-17.3,93.6c-1.04,5.6-5.54,9.64-10.9,10.32l-13.82,73.54v4.08h21.62l37.8-201.2-18.06-3.42,8.04-42.32,4.62.86,2.26-12.08c.62-3.24,3.7-5.38,6.94-4.8l19.38,3.42,4.72,6.76,40.98,7.18,6.72-4.7,17.64,3.12,4.68,6.68,40.98,7.18,6.64-4.64,30.42,5.36c9.54,1.68,16.52,9.98,16.52,19.68v234.72Zm-292.26-128.06c0,.16.04.6-.12,1.14-.24.86-.8,1.44-1.2,1.78l-24,14.86c-.3.12-.8.3-1.42.44,0,0-1.06.24-2.24.18-1.4-.06-7.36-.84-15.44-2.08l-29.04-5.38-18-3.34-29.8-5.54c-2.28-.48-5.62-1.46-9.2-3.54-5.96-3.46-9.1-7.94-9.84-9.04-1.86-2.76-3.66-6.54-4.84-14.9-.48-3.28-.88-7.5-.88-12.5,0-4.36.32-9.32,1.16-14.78l4.16-26.44,7.32-28.84,61.7,10.32,18.04,3.02,12.94,2.16,12.28,2.06,2.4.4.38.04c2.84.3,5.78.48,8.7.54,2.26.06,3.58.02,4.48,0,.32-.02.56-.04.76-.02l.22.04c3.72.88,5.88,4.6,5.9,4.64.2.34.36.7.52,1.08l5.18,67.14c.18,3.32.22,6.16.22,8.44-.04,6.22-.44,6.56-.34,8.12Zm-720.459,170.085h-20v-391.365h20v391.365Z" style="fill:#6d6e71;"></path><path d="m2242.26,1556.51h16.06v-49.7h-32.38c-6.26,0-12.38-.6-18.32-1.72l-.02.04-366.83-68.55,1.05-5.6,7.16,1.34,5.54-29.64-108.37-20.25-5.54,29.64,4.64.87-1.05,5.59-57.9-10.82h-10.72c-5.52,0-10-4.48-10-10v-232.13h96.58l6.59,6.03c1.54,1.4,2.89,3,4.02,4.75l3.28,5.06,29.71-19.65-1.84-19.21h-3.11v-13.62h-41.6v27.35h-93.63v-140.77h-55.04v382.17c0,5.54-4.48,10.02-10,10.02h-362.7v-166.92h21.29v.56h6.81c1.08,0,1.96.89,1.96,1.97v6.07c0,1.08-.88,1.96-1.96,1.96h-6.81v121.97h68.13v-144.13h-58.45v-25.32h-11.55v25.32h-19.42v-33.77h-23.9v168.08h-7.84v-145.4h-8.13v130.64h-36.39v29.52h52.36v29.45h-129.2v25.27c0-1.65,1.35-3,3-3h79.1c1.66,0,3,1.35,3,3,0,.83-.34,1.58-.88,2.12s-1.29.88-2.12.88h-79.1c-1.65,0-3-1.34-3-2.99v26.98h305.14c5.52,0,10,4.48,10,10v7.04h14.9v-17.04h57.32v.04l6.52,6.5h56.82l6.54-6.54h58.56c5.52,0,10,4.48,10,10v77.28l-6.5,6.5v47.38l6.5,6.5v78.8c0,5.54-4.48,10.02-10,10.02h-33.12v10.44h33.12c5.52,0,10,4.48,10,10v179.84c0,5.52-4.48,10-10,10h-108.78c-2.2,0-4-1.8-4-4v-55.98c0-2.2,1.8-4,4-4h29.9v13.08h31.38v-5.24h2.66v-10.48h-2.66v-13.04h-14.26v3.94h-156.86v11.74h92.7c2.2,0,4,1.8,4,4v55.98c0,2.22-1.8,4-4,4h-132.3c-5.48,0-9.94-4.42-10-9.9.02-.04.02-.06,0-.1.02-.56.02-1.18.04-1.84.02-1,.04-2.24.04-3.66.06-6.42.14-17.18.92-27.56l.06-1c.34-4.8,1.34-19.46,5.46-38.38,3.72-17.02,8.96-33.58,15.6-49.2l.24-.56c.78-1.84,1.94-4.32,3.42-7.46,1.82-3.86,4.1-8.66,6.86-14.84,1.12-2.54,2.16-4.76,3.12-6.86,1.78-3.86,3.32-7.22,4.94-11.16,7.72-18.98,12.54-29.88,16.42-38.62l2.36-5.36c6.02-13.74,8.08-20.22,10.7-28.42.56-1.76,1.16-3.64,1.82-5.68,2.76-8.44,3.82-14.88,4.44-18.72.16-.94.32-1.86.48-2.76.8-4.64,1.62-9.42,2.1-18.86.6-12.04.9-18.1,1.1-26.12.36-14.06.5-28.7.44-43.42h84.14c4.72,0,8.78,3.3,9.76,7.9l7.24,34.02h-45.9v-2.78h-4.02v28.78h6.7v-3.92h10.44v-3.92h36.64l6.92,32.64h-3.08v32.66h-11.74v32.54h11.74v76.38c0,3.3-2.7,6-6,6h-38.4v-76.96h5.22v-44.5h-3.92v-11.82h18.28v-3.94h-14.38v-10.38h-6.54v-3.92h-10.44v14.38h-13.22l-8.04,19.42,25.1,10.3-10.46,25.54-25.22-10.34-17.3,41.74,21.98,9v59.82h36.28v-5.24h64.12v11.66h7.82v-11.66h3.84v-17h-18.28v-71.76c0-2.22,1.8-4,4-4h14.3v-10.44h-14.3c-2.2,0-4-1.8-4-4v-72.94l-10.44-49.14v-46.36h-101.9v1.32h-13.04v-2.82h-6.9v23.74h4.34l-4.34.02c0,2.2.02,4.38.02,6.56,0,12.4-.16,24.66-.44,36.52-.2,7.86-.5,13.84-1.12,25.98-.42,8.46-1.14,12.66-1.92,17.1-.16.94-.32,1.9-.48,2.88-.78,4.7-1.72,9.88-3.98,16.78-.68,2.08-1.28,3.98-1.84,5.78-2.6,8.14-4.48,14.02-10.22,27.14l-2.36,5.3c-3.9,8.84-8.76,19.84-16.56,38.98-1.5,3.7-3,6.92-4.72,10.66-.98,2.12-2.02,4.4-3.18,6.98-2.7,6.04-4.94,10.78-6.72,14.6-.46.96-1,2.12-1.52,3.24-1.36,3-4.92,4.32-7.92,2.96l-25.16-11.42h-.02l-8.24,9,29.52,13.46c2.84,1.3,4.2,4.56,3.14,7.52-4.04,11.42-7.4,23.22-10.02,35.24-4.34,19.86-5.38,35.22-5.72,40.26l-.06.92c-.82,10.82-.9,21.84-.96,28.42,0,1.26-.02,2.38-.02,3.32h-.14v2.28c0,5.52-4.48,10-10,10h-288.56v22.26h51.29l.11,311.46h-55.23v14h55.24l.05,146.22-26.36,14.89,8.12,14.36,256.74-144.96,79.72,135.3,9.48-5.58-79.62-135.13.1-.06,92.65-53.55,19.72,33.84-30.55,17.8,20.2,34.67,16.85-9.82,7,12.03,7.55,12.96h.01l3.63,6.24,31.23-18.2-3.64-6.23,82.55-48.06,22.12-12.72h10.92c5.52,0,10,4.48,10,10v182.56h54.84v-122.96c0-5.52,4.48-10,10-10h523.04c5.52,0,10,4.48,10,10v141.2h23.82v-593.6c0-5.52,4.48-10,10-10h6.72l9.34,2.58v-38.92h-16.06c-5.52,0-10-4.48-10-10v-242.8c0-5.52,4.48-10,10-10Zm-959.26-313.19c0-1.08.88-1.97,1.97-1.97h29.61c1.09,0,1.97.89,1.97,1.97v6.07c0,1.08-.88,1.96-1.97,1.96h-8.68v107.75c0,1.08-.88,1.96-1.96,1.96h-8.07c-1.09,0-1.97-.88-1.97-1.96v-107.75h-8.93c-1.09,0-1.97-.88-1.97-1.96v-6.07Zm307.58,192.66h-336.45c-1.66,0-3-1.34-3-3,0-.82.33-1.58.88-2.12.54-.54,1.29-.88,2.12-.88h336.45c1.66,0,3,1.35,3,3,0,1.66-1.34,3-3,3Zm312.29,39.54c.29-1.63,1.85-2.72,3.48-2.43l292.54,51.98c1.63.29,2.72,1.85,2.43,3.48-.29,1.63-1.84,2.72-3.48,2.43l-292.54-51.99c-1.63-.29-2.72-1.84-2.43-3.47Zm-103.93-52.55l31.53,5.89-1.04,5.6-31.54-5.9,1.05-5.59Zm-39.29-7.34l31.32,5.85-1.05,5.59-31.32-5.85,1.05-5.59Zm-85.04,19.43c.29-1.63,1.85-2.72,3.48-2.43l193.64,34.06c1.63.28,2.72,1.84,2.43,3.47-.26,1.46-1.53,2.48-2.96,2.48-.17,0-.34-.01-.51-.04l-193.64-34.06c-1.63-.29-2.72-1.84-2.44-3.48Zm-9.21,426.87c0-5.54,4.48-10,10-10h410.74c12.8,0,23.18,10.38,23.18,23.18,0,1.9-.44,3.76-1.28,5.46l-122.34,245.3c-2.16,4.34-6.62,7.1-11.48,7.1h-298.82c-5.52,0-10-4.48-10-10v-261.04Zm-97.88,67.06h33.02c5.54,0,10,4.48,10,10v21.34c0,4.82-3.4,8.84-7.94,9.78v46.72c4.54.96,7.94,4.98,7.94,9.8v41.88h-20.9v-121.24h-22.12v-18.28Zm-61.52,20.86h3.96v-10.86c0-5.52,4.48-10,10-10h24.44c5.52,0,10,4.48,10,10v20.08h11.4v37.94c3.58,0,6.48,2.9,6.48,6.48s-2.9,6.48-6.48,6.48v41.26c0,8.98-5.94,16.6-14.1,19.1v31.02h22.24v20.94h15.7v-39.18h20.9v39.86c0,5.52-4.46,10-10,10h-34.92l-34.28,8.6c-1.04.26-2.08.38-3.12.38-4.9,0-9.42-2.84-11.52-7.28l-4.9-9.14,12.58-8.46v-45.84h-31.44v-5.06h24.18v-17.06h-4.54v-24.78h4.54v-47.06h4.64v-22.26h-15.76v-5.16Zm-191.94-16.86c0-2.2,1.8-4,4-4h109.54c2.22,0,4,1.8,4,4v26.02h-6.54v-11.76h-104.48v11.76h-6.52v-26.02Zm-2.88,58.22c0-5.52,4.48-9.98,9.98-9.98h122.34v-42.24c0-5.52,4.48-10,10-10h34.3c5.52,0,10,4.48,10,10v10.9h1.66v5.14h-13.2v56.24h17.16v-17h-6.52v-5.2h13.02v27.42h-23.66v55.76h-33.82v13.42h2.68v-5.14h6.48v11.66h-6.48v-3.88h-2.68v27.46h6.58v24.8h-6.58v18.28h2.26l.34-.2v-4.08l12.56-3.18,26.68-15.38-10.06-17.42-3.32,1.92c-.96.56-2.18.24-2.74-.72l-5.7-9.86c-.16-.3-.28-.64-.32-.98-.02-.1-.02-.2-.02-.3v-25.52h6.52v25.78l3.56,6.18,3.04-1.76c.96-.54,2.18-.22,2.74.74l11.08,19.18.02-.02,8.36,14.48c1.1,1.92.44,4.36-1.46,5.46l-52.76,30.46c-1.92,1.1-4.36.46-5.46-1.46l-2.76-4.8c-1-1.72-1.48-3.58-1.5-5.44v-129.34h-41.98v18.26h-37.88v-5.48h-33.94v1.58c0,3.6-2.94,6.52-6.54,6.52s-6.52-2.92-6.52-6.52v-65.28h-5.46v-.46Zm-227.04,402.68l-.05-116.48,205.67.33-205.62,116.15Zm265.66-150.54l-37.76,21.8-2.87,1.62-16.19-.03-6.05-6.14h-43.39l-5.96,6.05-77.79-.12-5.93-5.93h-44.07l-5.85,5.84-19.85-.03-.06-168.96h7.91v.02h56.12c2.2,0,4,1.8,4,4v91.32h41.7c2.2,0,4,1.8,4,4v10.38h10.46v-10.38c0-2.2,1.8-4,4-4h113l26.04,45.1c1.1,1.9.46,4.36-1.46,5.46Zm-188.6-64.98v-76.9c0-2.2,1.8-4,4-4h157.88c2.2,0,4,1.8,4,4v76.9c0,2.22-1.8,4-4,4h-157.88c-2.2,0-4-1.78-4-4Zm250.8,29.08l-44.88,25.9c-1.92,1.1-4.38.46-5.48-1.46l-25.4-44.02v-86.38c0-2.22,1.78-4.02,4-4.02h61.28v95.32h10.48v14.66Zm-6.2-119.12h-313.86v.02h-7.91l-.06-159.36h209.61c5.52,0,10,4.48,10,10v138.84h115.02v7.94h15.62v106.32c0,2.52-2.06,4.58-4.58,4.58-2.54,0-4.58-2.06-4.58-4.58v-84.5l-19.26-19.26Zm199.76,133.5l-45.64,26.36-56.28,32.79-7-12.03-29.24,17.04-20.2-34.66-1.28.74-19.72-33.84,107.9-62.42c7.28-4.2,15.42-6.62,23.8-7.08.64-.06,1.3-.1,1.96-.1h40.68c5.52,0,10,4.48,10,10v13.62l.02,40.92c0,3.58-1.9,6.88-5,8.66Zm340.64,61.64c0,5.54-4.48,10-10,10h-261.3c-5.54,0-10-4.46-10-10v-124.84c0-5.54,4.46-10,10-10h261.3c5.52,0,10,4.46,10,10v124.84Zm262.1,0c0,5.54-4.48,10-10,10h-225.5c-5.52,0-10-4.46-10-10v-124.84c0-5.54,4.48-10,10-10h225.5c5.52,0,10,4.46,10,10v124.84Zm0-160.5c0,5.52-4.48,10-10,10h-148.56c-16.56,0-30-13.44-30-30v-8.64l115.24-231.06.44-.88c3.38-6.24,9.98-10.46,17.58-10.46h55.3v271.04Zm0-313.66c0,5.52-4.48,10-10,10h-14.22l-5.28-5.3h-39.1l-5.3,5.3h-5.2c-3.32,0-6-2.68-6-6v-41.92h-12v41.92c0,3.32-2.68,6-6,6h-4.76l-5.3-5.3h-39.1l-5.3,5.3h-9.16l-5.28-5.3h-39.12l-5.28,5.3h-99.04c-6.22,0-10.92-5.6-9.86-11.72l10.74-61.24c1.32-8.16,4.36-19.76,11.6-28.36,4.24-5.02,8.46-8.68,8.46-8.68,5.96-5.18,8.96-7.76,10.74-8.92.6-.38,2.1-1.32,3.44-3.08.32-.42,1.3-1.78,1.94-3.88.72-2.32.62-4.26.46-6.4-.22-2.74-.58-6.3-1.26-10.5l-6.3-81.42-.22-.68c-.44-1.34-1-2.62-1.68-3.82-.18-.34-.58-1-1.18-1.84-3.74-5.16-5.4-11.52-4.34-17.8l.04-.2-11.84-1.96-.32,1.84c-.92,5.44-5.9,9.26-11.4,8.72l-.08-.02-1.98-.32-12.26-2.06-12.94-2.16-18.06-3.02-72.82-12.16-5.08-.6-20.56,18.74v16.46l15.54,5.2-9.42,59.5c-.66,3.58-1.1,6.64-1.38,8.94-.26,2.12-.5,3.96-.64,6.44-.16,3-.12,5.54-.06,7.4v22.28h12.06c.42-.92,1.1-2.22,2.22-3.56.62-.76,1.18-1.42,2.1-2.02.78-.5,1.82-.98,4.42-1.24,2.84-.3,5.04-.12,5.26-.1,5.08.48,10,1.32,12.46,1.74l30.98,5.76,17.98,3.34,23.72,4.4c10.78,2,17.96,12.32,16.06,23.12l-4.78,27.22-23.82-4.32-3.76,20.76,23.94,4.34-4.82,27.6c-.84,4.78-5,8.28-9.86,8.28h-180.88c-5.54,0-10.02-4.48-10.02-10.02v-335.28c0-6.22,5.62-10.94,11.76-9.84l57.76,10.2,4.96,7.08,57.52,10.08,7.02-4.92,103.9,18.32c3.24.56,5.42,3.64,4.86,6.88l-2.14,12.7,11.84,1.96,2.1-12.46c.56-3.3,3.68-5.5,6.98-4.92l1.12.2,2.98,13.2,46.3,8.12,8.76-11.1,6.82,1.2c3.3.58,5.48,3.74,4.86,7.02l-6.18,32.9c-.3,1.66-1.9,2.74-3.56,2.44l-3.46,17.96c1.12.98,2.16,2.02,3.08,3.14.34.38.64.78.94,1.18,3.32,4.46,5.24,9.98,5.24,15.78,0,1.6-.14,3.22-.44,4.84l-17.3,93.6c-1.04,5.6-5.54,9.64-10.9,10.32l-13.82,73.54v4.08h21.62l37.8-201.2-18.06-3.42,8.04-42.32,4.62.86,2.26-12.08c.62-3.24,3.7-5.38,6.94-4.8l19.38,3.42,4.72,6.76,40.98,7.18,6.72-4.7,17.64,3.12,4.68,6.68,40.98,7.18,6.64-4.64,30.42,5.36c9.54,1.68,16.52,9.98,16.52,19.68v234.72Zm-292.26-128.06c0,.16.04.6-.12,1.14-.24.86-.8,1.44-1.2,1.78l-24,14.86c-.3.12-.8.3-1.42.44,0,0-1.06.24-2.24.18-1.4-.06-7.36-.84-15.44-2.08l-29.04-5.38-18-3.34-29.8-5.54c-2.28-.48-5.62-1.46-9.2-3.54-5.96-3.46-9.1-7.94-9.84-9.04-1.86-2.76-3.66-6.54-4.84-14.9-.48-3.28-.88-7.5-.88-12.5,0-4.36.32-9.32,1.16-14.78l4.16-26.44,7.32-28.84,61.7,10.32,18.04,3.02,12.94,2.16,12.28,2.06,2.4.4.38.04c2.84.3,5.78.48,8.7.54,2.26.06,3.58.02,4.48,0,.32-.02.56-.04.76-.02l.22.04c3.72.88,5.88,4.6,5.9,4.64.2.34.36.7.52,1.08l5.18,67.14c.18,3.32.22,6.16.22,8.44-.04,6.22-.44,6.56-.34,8.12Zm-720.459,170.085h-20v-391.365h20v391.365Z" style="fill:#6d6e71;"></path></g><g id="tramway"><g><path id="bot-left" d="m1637.968,2441.01v-555.39c0-27.617,22.388-50.004,50.004-50.004h437.717" style="fill:none;stroke:#484e59;stroke-miterlimit:10;stroke-width:12px;"></path><line id="top" x1="1637.968" y1="1909.246" x2="1637.968" y2="1015.516" style="fill:none;stroke:#484e59;stroke-miterlimit:10;stroke-width:12px;"></line></g></g><g id="buildings"><g><g id="Cardinal"><rect x="1346.419" y="1239.387" width="69.097" height="146.903" style="fill:#a1d4a8;"></rect><rect x="1415.516" y="1322.871" width="105.548" height="63.419" style="fill:#a1d4a8;"></rect><rect x="1521.065" y="1252.935" width="58.839" height="133.355" style="fill:#a1d4a8;"></rect><rect x="1521.065" y="1180.677" width="58.839" height="72.258" style="fill:#a1d4a8;"></rect><polygon points="1513.581 1015.516 1513.581 1060.806 1529.258 1060.806 1529.258 1078.677 1513.581 1078.677 1513.581 1180.677 1579.903 1180.677 1579.903 1015.516 1513.581 1015.516" style="fill:#a1d4a8;"></polygon></g><rect x="1513.581" y="1062.565" width="13.952" height="14.452" style="fill:#a1d4a8;"></rect><polygon points="1438.06 1080.03 1438.06 1140.1 1348.65 1140.1 1348.65 1207.77 1284.55 1207.77 1284.55 1080.03 1438.06 1080.03" style="fill:#a1d4a8;"></polygon><path d="m1182.244,1348.74h-21.954v-111.546h37.68v95.82c0,8.685-7.041,15.726-15.726,15.726Z" style="fill:#a1d4a8;"></path><rect x="1166.548" y="1195.516" width="31.422" height="41.677" style="fill:#a1d4a8;"></rect><polygon points="1801.65 1102.48 1801.65 1128.29 1756.16 1128.29 1756.16 1153.58 1672.03 1153.58 1672.03 1015.52 1705.06 1015.52 1705.06 1102.48 1801.65 1102.48" style="fill:#a1d4a8;"></polygon><polygon id="Klimov" points="2224.55 1318.24 2200.04 1449.4 2004.22 1412.81 2002.37 1422.73 1879.13 1399.7 1880.98 1389.77 1684.89 1353.13 1702.98 1256.32 1682.52 1256.32 1682.52 1167.13 1746.1 1167.13 1746.1 1178.55 1760.1 1178.55 1760.1 1189.52 1746.1 1189.52 1746.1 1208.42 1765.89 1227.96 1816.29 1228.03 1818.61 1223.13 1859.4 1245.44 1859.41 1245.44 2144.65 1298.74 2143.83 1303.16 2224.55 1318.24" style="fill:#a1d4a8;"></polygon><g id="Pinewood"><path d="m1923.83,1527.33l-7.7,43.65-15.22-2.68-1.09,6.15-136.93-24.14-6.99,9.28c-1.75,2.32-3.86,4.35-6.26,5.99l-9.29,6.37,1.15,33.55,12.33,2.17-10.24,58.08v.02l2.12,43.68,73.86,1.86.53-3,32.88,5.79-12.76,72.38-27.98-4.93-.92,5.21-35.03-6.17-.86,4.87-35.08-6.19-1.15,6.51-43.07-7.59,3.76-21.37-8.96-1.58,6.3-35.78-4.26-.75,2.92-16.6-8.34-1.47,6.15-34.89-6.1-1.07,6.58-37.31-7.08-1.25,6-34.04-5.56-.98,6.03-34.2-13.28-2.9,2.94-15.08c.62-3.15,1.76-6.17,3.38-8.94l4.52-7.72-.58-10.84,6.33,4.35,6.03-6.25c1.93-2.01,4.23-3.63,6.78-4.77l7.08-3.2-6.03-12.03,9.39,1.91,188.47,33.22,15.23,2.68Z" style="fill:#a1d4a8;"></path><rect x="1817.208" y="1685.972" width="29.509" height="18.891" transform="translate(-155.692 3205.304) rotate(-80.005)" style="fill:#a1d4a8;"></rect><rect x="1842.708" y="1568.146" width="23.494" height="20.469" transform="translate(-21.843 3130.731) rotate(-80.005)" style="fill:#a1d4a8;"></rect><rect x="1870.914" y="1577.047" width="23.494" height="12.61" transform="translate(-3.428 3162.617) rotate(-80.005)" style="fill:#a1d4a8;"></rect><polygon points="1910.74 1677.45 1887.82 1690.28 1820.05 1678.34 1834.84 1594.39 1841.05 1595.48 1842.34 1588.17 1903.9 1599.02 1902.61 1606.33 1910.74 1677.45" style="fill:#a1d4a8;"></polygon></g><polygon points="1975 1803 2106.839 1803 2106.839 1771.774 1980.976 1771.774 1975 1803" style="fill:#a1d4a8;"></polygon><polygon points="2017.396 1771.774 1980.976 1771.774 2015.82 1586.31 2050.998 1592.919 2017.396 1771.774" style="fill:#a1d4a8;"></polygon><rect x="2074.004" y="1483.94" width="43.107" height="190.841" transform="translate(156.425 3347.269) rotate(-79.36)" style="fill:#a1d4a8;"></rect><polygon id="Post_Office_46" points="1595.42 1539 1595.42 1684.35 1570.42 1684.35 1570.42 1693.13 1548.68 1693.13 1548.68 1539 1595.42 1539" style="fill:#a1d4a8;"></polygon><path id="_44" d="m1595.42,1491.29v47.71h-40.36v-24.58h-36.189v-38.13h61.549c8.28,0,15,6.72,15,15Z" style="fill:#a1d4a8;"></path><rect id="_20" x="1475.13" y="1476.29" width="43.741" height="38.13" style="fill:#a1d4a8;"></rect><rect id="_18" x="1340.613" y="1476.29" width="134.517" height="44.323" style="fill:#a1d4a8;"></rect><rect id="_16" x="1268.419" y="1477.935" width="72.194" height="34.355" style="fill:#a1d4a8;"></rect><polygon id="_16a" points="1310.23 1556.9 1310.23 1584.19 1268.42 1584.19 1268.42 1512.29 1297.55 1512.29 1297.55 1556.9 1310.23 1556.9" style="fill:#a1d4a8;"></polygon><rect id="_14" x="1201.839" y="1477.935" width="51.871" height="34.355" style="fill:#a1d4a8;"></rect><rect x="1232.032" y="1520.161" width="10.839" height="10.839" style="fill:#a1d4a8;"></rect><rect id="_14a" x="1198.065" y="1527.677" width="23.71" height="56.513" style="fill:#a1d4a8;"></rect><polygon id="School" points="1245.39 1651.45 1245.39 1667.84 1257.39 1667.84 1257.39 1681.9 1245.39 1681.9 1245.39 1697.97 1257.39 1697.97 1257.39 1734.94 1230.68 1734.94 1230.68 1728.87 1220.23 1728.87 1220.23 1724.52 1213.16 1724.52 1213.16 1710.58 1220.23 1710.58 1220.23 1639.16 1213.16 1639.16 1213.16 1625.23 1220.23 1625.23 1220.23 1620.1 1232.03 1620.1 1232.03 1615.06 1257.39 1615.06 1257.39 1651.45 1245.39 1651.45" style="fill:#a1d4a8;"></polygon><polygon points="1501.258 1587.065 1501.258 1553.129 1420.484 1553.129 1420.484 1639.323 1501.258 1639.323 1501.258 1604.806 1481 1604.806 1481 1608.484 1471.774 1608.484 1471.774 1612.355 1464.677 1612.355 1464.677 1585.39 1469.645 1585.39 1469.645 1587.065 1501.258 1587.065" style="fill:#a1d4a8;"></polygon><polygon points="1469.31 1679.11 1458.74 1704.59 1433.74 1694.23 1416.36 1736.15 1385.53 1723.36 1420.48 1639.32 1456.45 1639.46 1444.31 1668.75 1469.31 1679.11" style="fill:#a1d4a8;"></polygon><rect id="_4a" x="1270.548" y="1602.935" width="27.29" height="65.355" style="fill:#a1d4a8;"></rect><polygon id="_2" points="1396.29 1560.94 1396.29 1617.71 1353.71 1617.71 1353.71 1624.29 1323.13 1621.71 1324.55 1585.97 1371.26 1585.97 1371.26 1560.94 1396.29 1560.94" style="fill:#a1d4a8;"></polygon><polygon id="_4" points="1354.975 1634.155 1347.964 1648.824 1330.165 1640.318 1337.176 1625.648 1317.417 1666.99 1369.69 1691.972 1389.448 1650.63 1354.975 1634.155" style="fill:#a1d4a8;"></polygon><rect id="_6" x="1302.652" y="1702.825" width="73.88" height="31.409" transform="translate(-788.598 2186.138) rotate(-64.456)" style="fill:#a1d4a8;"></rect><polygon id="_8" points="1317.42 1862.87 1323.51 1781.78 1270.06 1754.54 1254.08 1785.88 1286.25 1802.28 1281.68 1862.87 1317.42 1862.87" style="fill:#a1d4a8;"></polygon><rect id="_13" x="1173.82" y="1862.87" width="143.6" height="35.48" style="fill:#a1d4a8;"></rect><polygon id="_5b" points="1239.1 1755.1 1239.1 1760.9 1233.29 1760.9 1233.29 1780.84 1196.13 1780.84 1196.13 1755.1 1239.1 1755.1" style="fill:#a1d4a8;"></polygon><rect x="1218.484" y="1815.194" width="16.161" height="20.806" style="fill:#a1d4a8;"></rect><rect id="_12" x="1097.323" y="1471.258" width="76.497" height="37.29" style="fill:#a1d4a8;"></rect><polygon id="_1" points="1133.194 1508.548 1097.323 1508.548 1097.323 1566.613 1173.82 1566.613 1173.82 1541.065 1133.194 1541.065 1133.194 1508.548" style="fill:#a1d4a8;"></polygon><rect id="_1a" x="1155.387" y="1508.548" width="18.433" height="32.516" style="fill:#a1d4a8;"></rect><polygon id="_3" points="1135.571 1566.613 1097.323 1566.613 1097.323 1620.161 1173.82 1620.161 1173.82 1594.613 1135.571 1594.613 1135.571 1566.613" style="fill:#a1d4a8;"></polygon><rect x="1097.323" y="1620.161" width="30.968" height="70.387" style="fill:#a1d4a8;"></rect><polygon id="_5" points="1173 1719.39 1173 1769.71 1097.32 1769.71 1097.32 1690.55 1139.52 1690.55 1139.52 1719.39 1173 1719.39" style="fill:#a1d4a8;"></polygon><polygon id="_3a" points="1509.98 1665.09 1509.98 1709.59 1482.54 1709.59 1482.54 1665.09 1478.62 1665.09 1478.62 1653.27 1499.13 1653.27 1499.13 1665.09 1509.98 1665.09" style="fill:#a1d4a8;"></polygon><rect x="1478.62" y="1746.871" width="17.799" height="20.323" style="fill:#a1d4a8;"></rect><rect x="1496.419" y="1751.903" width="18.968" height="30.726" style="fill:#a1d4a8;"></rect><rect id="_48" x="1548.68" y="1713" width="43.352" height="50.129" style="fill:#a1d4a8;"></rect><rect x="1548.68" y="1693.13" width="21.65" height="19.87" style="fill:#a1d4a8;"></rect><rect id="_50" x="1552.742" y="1763.129" width="39.29" height="52.065" style="fill:#a1d4a8;"></rect><path id="Tarbank_52" d="m1592.03,1815.19v57.71c0,11.05-8.95,20-20,20h-79.97v-38.85h60.68v-38.86h39.29Z" style="fill:#a1d4a8;"></path><polygon id="_15" points="1475.13 1849.32 1475.13 1892.9 1344.81 1892.9 1344.81 1828.84 1381.92 1828.84 1381.92 1849.32 1475.13 1849.32" style="fill:#a1d4a8;"></polygon><rect x="1438.645" y="1808.705" width="21" height="21" style="fill:#a1d4a8;"></rect><rect x="1380.581" y="1538.806" width="15.387" height="14.032" style="fill:#a1d4a8;"></rect><rect x="1509.452" y="1622.484" width="11.484" height="10.065" style="fill:#a1d4a8;"></rect><path id="Lexos_54" d="m1565.8,1959.07v92.16c0,11.05-8.95,20-20,20h-27.42v-93.96h5.39v-18.2h.76l.35-.39c1.38-1.55,3.22-2.62,5.25-3.04,1.16-.24,2.36-.27,3.53-.07l2.72.45c1.09.18,2.15.55,3.12,1.09l3.52,1.96h22.78Z" style="fill:#a1d4a8;"></path><rect id="Lexos_54-2" x="1453.306" y="1949.323" width="32.613" height="119.187" style="fill:#a1d4a8;"></rect><rect id="_56" x="1525.452" y="2081.645" width="25.419" height="35.226" style="fill:#a1d4a8;"></rect><polygon id="Sparja_54a" points="1444.68 1987.9 1444.68 2036.68 1401.52 2036.68 1401.52 2054.74 1318.48 2054.74 1318.48 1987.9 1444.68 1987.9" style="fill:#a1d4a8;"></polygon><polygon id="Crane" points="1279.52 1989.45 1279.52 2039.26 1121.58 2039.26 1121.58 1951.26 1173.82 1951.26 1173.82 1989.45 1279.52 1989.45" style="fill:#a1d4a8;"></polygon><rect id="_9" x="1353.839" y="2103.774" width="42.065" height="90.581" style="fill:#a1d4a8;"></rect><polygon id="_7" points="1301.19 2206.74 1301.19 2249.06 1092.68 2249.06 1092.68 2118.23 1138.87 2118.23 1138.87 2206.74 1301.19 2206.74" style="fill:#a1d4a8;"></polygon><polygon id="Crash_site" points="1053.58 2281.06 1053.58 2335.65 1022.81 2335.65 1022.81 2316.97 1016.85 2316.97 1016.85 2308.84 1012.65 2308.84 1012.65 2281.06 1053.58 2281.06" style="fill:#a1d4a8;"></polygon><polygon points="1280.03 2396.61 1256.33 2410.63 1253.4 2412.37 1249.27 2405.38 1252.2 2403.65 1247.13 2395.06 1244.93 2391.35 1243.88 2391.97 1234.34 2397.62 1236.45 2401.18 1107.39 2477.51 1105.28 2473.95 1105.17 2474.02 1096.94 2478.88 1087.16 2484.67 1078.65 2470.27 1088.43 2464.49 1082.63 2454.68 1229.57 2367.77 1235.64 2378.04 1249.58 2369.79 1257.82 2383.73 1260.02 2387.44 1270.83 2381.05 1280.03 2396.61" style="fill:#a1d4a8;"></polygon><rect x="1315.178" y="2311.112" width="31.376" height="125.673" transform="translate(-1020.883 1004.237) rotate(-30.507)" style="fill:#a1d4a8;"></rect><polygon id="Teppakot" points="1595.12 2225.36 1502.92 2278.65 1483.73 2245.43 1492.56 2240.32 1485.4 2227.93 1369.69 2294.81 1368.14 2292.14 1343.3 2306.5 1328.44 2280.79 1545.57 2155.29 1560.43 2181 1561.97 2183.67 1560.07 2184.77 1567.24 2197.16 1575.92 2192.14 1595.12 2225.36" style="fill:#a1d4a8;"></polygon><polygon points="1405.45 2317.58 1370.06 2338.04 1357.19 2315.77 1351.96 2306.72 1364.59 2299.43 1369.82 2308.47 1392.58 2295.32 1405.45 2317.58" style="fill:#a1d4a8;"></polygon><rect x="1379.409" y="2332.158" width="40.215" height="25.312" transform="translate(-985.538 1015.034) rotate(-30.027)" style="fill:#a1d4a8;"></rect><rect x="1449.377" y="2332.431" width="16.76" height="41.89" transform="translate(-982.006 1045.327) rotate(-30.027)" style="fill:#a1d4a8;"></rect><path id="_60" d="m1599,2249.65v156.16h-6.71v30.19c0,3.95-3.53,6.96-7.43,6.35l-100.31-15.74v-21.67h78.16v-88.07h-20.55l-38.45,22.22-1.28-2.22-15.86,9.17-12.72-22.01,14.78-8.54-3.99-6.89,78.07-45.13,23.92-13.82h12.37Z" style="fill:#a1d4a8;"></path><path id="_53" d="m1691.323,2322.355h55.806v161.677h-67.484v-150c0-6.449,5.228-11.677,11.677-11.677Z" style="fill:#a1d4a8;"></path><polygon id="_4-2" points="1897.065 2322.355 1897.065 2369.71 1917.968 2369.71 1917.968 2435.129 2037.968 2435.129 2037.968 2369.71 2058.871 2369.71 2058.871 2322.355 1897.065 2322.355" style="fill:#a1d4a8;"></polygon><rect id="_2-2" x="1747.129" y="2322.355" width="149.935" height="47.355" style="fill:#a1d4a8;"></rect><rect id="_6-2" x="2058.871" y="2322.355" width="130.323" height="47.355" style="fill:#a1d4a8;"></rect><rect id="_80" x="2117.194" y="2159.452" width="75.871" height="112.581" style="fill:#a1d4a8;"></rect><rect id="_4-3" x="2056.032" y="2158.226" width="35.484" height="122.581" style="fill:#a1d4a8;"></rect><polygon id="Cinema" points="2056.03 2163.13 2056.03 2270.42 1964.68 2270.42 1964.68 2238.68 1941.77 2238.68 1941.77 2233.26 1907.32 2233.26 1907.32 2205.77 1941.77 2205.77 1941.77 2200.35 1964.68 2200.35 1964.68 2170.74 2018.87 2170.74 2018.87 2163.13 2056.03 2163.13" style="fill:#a1d4a8;"></polygon><path d="m2152.17,1882.96c-5.21-2.6-11.54-.49-14.14,4.73l-104.11,208.74c-4.06,8.13-.75,18,7.38,22.06l7.95,3.96h38.56v-3.14h31.93v-15.97h2.03v-15h-26.71l-1.47-1.54c-1.5-1.57-2.37-3.65-2.43-5.82l-.12-3.93,35.02-70.22-6.99-3.49,13.99-28.03,20.42,9.95v45.22h-13.32v26.84h21.49v36.39h-21.49v3.48h-2.81v26.97h40.36c4.77,0,8.64-3.87,8.64-8.64v-81.29h4.65v-48.52h2.77v-82.06l-41.6-20.69Z" style="fill:#a1d4a8;"></path><rect x="1684.161" y="2104.29" width="25.677" height="10.323" style="fill:#a1d4a8;"></rect><polygon id="_49" points="1683.645 1858.484 1683.645 1870.548 1676.032 1870.548 1676.032 1931.516 1680.871 1931.516 1680.871 1946.871 1683.645 1946.871 1713.065 1946.871 1713.065 1858.484 1683.645 1858.484" style="fill:#a1d4a8;"></polygon><path id="_8-2" d="m1938.87,1902.68v68.42h15.15c7.88,0,14.27-6.39,14.27-14.28v-18.72h36.516l10.714-20.519v-14.901h-76.65Z" style="fill:#a1d4a8;"></path><polygon id="_6-3" points="1980.64 2001.72 1966.47 2026.26 1935.8 2008.55 1863.58 2008.55 1863.58 1996.3 1851.97 1996.3 1851.97 1998.1 1826.61 1998.1 1826.61 1955.44 1809.19 1955.44 1809.19 1921.84 1842.48 1921.84 1842.48 1913.9 1884.39 1913.9 1884.39 1908.19 1898.76 1908.19 1898.76 1921.84 1919 1921.84 1919 1931.84 1938.87 1931.84 1938.87 1971.1 1909.97 1971.1 1909.97 1957.16 1890.9 1957.16 1890.9 1955.44 1860.1 1955.44 1860.1 1966.69 1857.15 1966.69 1857.15 1984.69 1863.58 1984.69 1863.58 1983.19 1948.55 1983.19 1980.64 2001.72" style="fill:#a1d4a8;"></polygon><polygon id="_4-4" points="1835.323 1858.484 1835.323 1889.903 1851.581 1889.903 1851.581 1906.355 1882.742 1906.355 1882.742 1889.903 1899.387 1889.903 1899.387 1858.484 1835.323 1858.484" style="fill:#a1d4a8;"></polygon><polygon id="Theatre" points="1782.484 1863 1782.484 1854.045 1713.065 1854.045 1713.065 1902.68 1782.484 1902.68 1782.484 1893.581 1791.194 1893.581 1791.194 1863 1782.484 1863" style="fill:#a1d4a8;"></polygon><polygon id="_Вести_51" points="1794.871 2078.226 1794.871 2020.355 1804.161 2020.355 1804.161 1960.548 1794.871 1960.548 1794.871 1921.129 1804.161 1921.129 1804.161 1893.581 1782.484 1893.581 1782.484 1902.68 1734.484 1902.68 1734.484 1999.387 1727.903 1999.387 1727.903 2018.484 1734.484 2018.484 1734.484 2058.962 1727.903 2058.962 1727.903 2079 1734.484 2079 1734.484 2106.484 1752.129 2106.484 1752.129 2114.613 1826.323 2114.613 1826.323 2078.226 1794.871 2078.226" style="fill:#a1d4a8;"></polygon><polygon id="_Вести_1" points="1892.23 2065.55 1892.23 2088.68 1894.92 2088.68 1894.92 2119.45 1835.71 2119.45 1835.71 2088.68 1855.45 2088.68 1855.45 2065.06 1835.71 2065.06 1835.71 2032.35 1906.55 2032.35 1902 2065.55 1892.23 2065.55" style="fill:#a1d4a8;"></polygon><rect id="_3-2" x="1894.92" y="2090.032" width="80.919" height="29.418" style="fill:#a1d4a8;"></rect><polygon points="1997.97 2075.9 1991.71 2090.03 1930.35 2090.03 1930.35 2041.26 1949.71 2041.26 1949.71 2075.9 1997.97 2075.9" style="fill:#a1d4a8;"></polygon><path id="_3-3" d="m2020.92,2029.88l-22.95,46.02h-27.23l-.97-4.06c-.13-.55-.39-1.07-.75-1.5l-2.51-3.02c-.52-.62-.8-1.41-.8-2.22v-1.37c0-.9.25-1.78.73-2.54l.87-1.41c.48-.77,1.07-1.47,1.75-2.08l4.37-3.87,19.03-38.15,28.46,14.2Z" style="fill:#a1d4a8;"></path><path id="_2-3" d="m2095.89,1879.56l-74.97,150.32-28.46-14.2,17.33-34.74-12.5-6.23,10.99-22.03,12.49,6.23,7.51-15.06-12.49-6.23,10.95-21.95,12.49,6.23,18.98-38.05h-14.92v-27.82h38.81l7.11,3.55c7.36,3.67,10.35,12.62,6.68,19.98Z" style="fill:#a1d4a8;"></path><rect id="_10" x="1982.613" y="1856.03" width="54.581" height="27.82" style="fill:#a1d4a8;"></rect><polygon points="1975.74 1865.52 1975.74 1881.85 1969.65 1881.85 1969.65 1890.48 1957.94 1890.48 1957.94 1865.52 1975.74 1865.52" style="fill:#a1d4a8;"></polygon><rect x="1809.19" y="1862.226" width="23.229" height="59.614" style="fill:#a1d4a8;"></rect></g><g><g id="Cardinal-2"><rect x="1346.419" y="1239.387" width="69.097" height="146.903" style="fill:none;stroke:#000;stroke-miterlimit:10;"></rect><rect x="1415.516" y="1322.871" width="105.548" height="63.419" style="fill:none;stroke:#000;stroke-miterlimit:10;"></rect><rect x="1521.065" y="1252.935" width="58.839" height="133.355" style="fill:none;stroke:#000;stroke-miterlimit:10;"></rect><rect x="1521.065" y="1180.677" width="58.839" height="72.258" style="fill:none;stroke:#000;stroke-miterlimit:10;"></rect><polygon points="1513.581 1015.516 1513.581 1060.806 1529.258 1060.806 1529.258 1078.677 1513.581 1078.677 1513.581 1180.677 1579.903 1180.677 1579.903 1015.516 1513.581 1015.516" style="fill:none;stroke:#000;stroke-miterlimit:10;"></polygon></g><rect x="1513.581" y="1062.565" width="13.952" height="14.452" style="fill:none;stroke:#000;stroke-miterlimit:10;"></rect><polygon points="1438.06 1080.03 1438.06 1140.1 1348.65 1140.1 1348.65 1207.77 1284.55 1207.77 1284.55 1080.03 1438.06 1080.03" style="fill:none;stroke:#000;stroke-miterlimit:10;"></polygon><path d="m1182.244,1348.74h-21.954v-111.546h37.68v95.82c0,8.685-7.041,15.726-15.726,15.726Z" style="fill:none;stroke:#000;stroke-miterlimit:10;"></path><rect x="1166.548" y="1195.516" width="31.422" height="41.677" style="fill:none;stroke:#000;stroke-miterlimit:10;"></rect><polygon points="1801.65 1102.48 1801.65 1128.29 1756.16 1128.29 1756.16 1153.58 1672.03 1153.58 1672.03 1015.52 1705.06 1015.52 1705.06 1102.48 1801.65 1102.48" style="fill:none;stroke:#000;stroke-miterlimit:10;"></polygon><polygon id="Klimov-2" points="2224.55 1318.24 2200.04 1449.4 2004.22 1412.81 2002.37 1422.73 1879.13 1399.7 1880.98 1389.77 1684.89 1353.13 1702.98 1256.32 1682.52 1256.32 1682.52 1167.13 1746.1 1167.13 1746.1 1178.55 1760.1 1178.55 1760.1 1189.52 1746.1 1189.52 1746.1 1208.42 1765.89 1227.96 1816.29 1228.03 1818.61 1223.13 1859.4 1245.44 1859.41 1245.44 2144.65 1298.74 2143.83 1303.16 2224.55 1318.24" style="fill:none;stroke:#000;stroke-miterlimit:10;"></polygon><g id="Pinewood-2"><path d="m1923.83,1527.33l-7.7,43.65-15.22-2.68-1.09,6.15-136.93-24.14-6.99,9.28c-1.75,2.32-3.86,4.35-6.26,5.99l-9.29,6.37,1.15,33.55,12.33,2.17-10.24,58.08v.02l2.12,43.68,73.86,1.86.53-3,32.88,5.79-12.76,72.38-27.98-4.93-.92,5.21-35.03-6.17-.86,4.87-35.08-6.19-1.15,6.51-43.07-7.59,3.76-21.37-8.96-1.58,6.3-35.78-4.26-.75,2.92-16.6-8.34-1.47,6.15-34.89-6.1-1.07,6.58-37.31-7.08-1.25,6-34.04-5.56-.98,6.03-34.2-13.28-2.9,2.94-15.08c.62-3.15,1.76-6.17,3.38-8.94l4.52-7.72-.58-10.84,6.33,4.35,6.03-6.25c1.93-2.01,4.23-3.63,6.78-4.77l7.08-3.2-6.03-12.03,9.39,1.91,188.47,33.22,15.23,2.68Z" style="fill:none;stroke:#000;stroke-miterlimit:10;"></path><rect x="1817.208" y="1685.972" width="29.509" height="18.891" transform="translate(-155.692 3205.304) rotate(-80.005)" style="fill:none;stroke:#000;stroke-miterlimit:10;"></rect><rect x="1842.708" y="1568.146" width="23.494" height="20.469" transform="translate(-21.843 3130.731) rotate(-80.005)" style="fill:none;stroke:#000;stroke-miterlimit:10;"></rect><rect x="1870.914" y="1577.047" width="23.494" height="12.61" transform="translate(-3.428 3162.617) rotate(-80.005)" style="fill:none;stroke:#000;stroke-miterlimit:10;"></rect><polygon points="1910.74 1677.45 1887.82 1690.28 1820.05 1678.34 1834.84 1594.39 1841.05 1595.48 1842.34 1588.17 1903.9 1599.02 1902.61 1606.33 1910.74 1677.45" style="fill:none;stroke:#000;stroke-miterlimit:10;"></polygon></g><polygon points="1975 1803 2106.839 1803 2106.839 1771.774 1980.976 1771.774 1975 1803" style="fill:none;stroke:#000;stroke-miterlimit:10;"></polygon><polygon points="2017.396 1771.774 1980.976 1771.774 2015.82 1586.31 2050.998 1592.919 2017.396 1771.774" style="fill:none;stroke:#000;stroke-miterlimit:10;"></polygon><rect x="2074.004" y="1483.94" width="43.107" height="190.841" transform="translate(156.425 3347.269) rotate(-79.36)" style="fill:none;stroke:#000;stroke-miterlimit:10;"></rect><polygon id="Post_Office_46-2" points="1595.42 1539 1595.42 1684.35 1570.42 1684.35 1570.42 1693.13 1548.68 1693.13 1548.68 1539 1595.42 1539" style="fill:none;stroke:#000;stroke-miterlimit:10;"></polygon><path id="_44-2" d="m1595.42,1491.29v47.71h-40.36v-24.58h-36.189v-38.13h61.549c8.28,0,15,6.72,15,15Z" style="fill:none;stroke:#000;stroke-miterlimit:10;"></path><rect id="_20-2" x="1475.13" y="1476.29" width="43.741" height="38.13" style="fill:none;stroke:#000;stroke-miterlimit:10;"></rect><rect id="_18-2" x="1340.613" y="1476.29" width="134.517" height="44.323" style="fill:none;stroke:#000;stroke-miterlimit:10;"></rect><rect id="_16-2" x="1268.419" y="1477.935" width="72.194" height="34.355" style="fill:none;stroke:#000;stroke-miterlimit:10;"></rect><polygon id="_16a-2" points="1310.23 1556.9 1310.23 1584.19 1268.42 1584.19 1268.42 1512.29 1297.55 1512.29 1297.55 1556.9 1310.23 1556.9" style="fill:none;stroke:#000;stroke-miterlimit:10;"></polygon><rect id="_14-2" x="1201.839" y="1477.935" width="51.871" height="34.355" style="fill:none;stroke:#000;stroke-miterlimit:10;"></rect><rect x="1232.032" y="1520.161" width="10.839" height="10.839" style="fill:none;stroke:#000;stroke-miterlimit:10;"></rect><rect id="_14a-2" x="1198.065" y="1527.677" width="23.71" height="56.513" style="fill:none;stroke:#000;stroke-miterlimit:10;"></rect><polygon id="School-2" points="1245.39 1651.45 1245.39 1667.84 1257.39 1667.84 1257.39 1681.9 1245.39 1681.9 1245.39 1697.97 1257.39 1697.97 1257.39 1734.94 1230.68 1734.94 1230.68 1728.87 1220.23 1728.87 1220.23 1724.52 1213.16 1724.52 1213.16 1710.58 1220.23 1710.58 1220.23 1639.16 1213.16 1639.16 1213.16 1625.23 1220.23 1625.23 1220.23 1620.1 1232.03 1620.1 1232.03 1615.06 1257.39 1615.06 1257.39 1651.45 1245.39 1651.45" style="fill:none;stroke:#000;stroke-miterlimit:10;"></polygon><polygon points="1501.258 1587.065 1501.258 1553.129 1420.484 1553.129 1420.484 1639.323 1501.258 1639.323 1501.258 1604.806 1481 1604.806 1481 1608.484 1471.774 1608.484 1471.774 1612.355 1464.677 1612.355 1464.677 1585.39 1469.645 1585.39 1469.645 1587.065 1501.258 1587.065" style="fill:none;stroke:#000;stroke-miterlimit:10;"></polygon><polygon points="1469.31 1679.11 1458.74 1704.59 1433.74 1694.23 1416.36 1736.15 1385.53 1723.36 1420.48 1639.32 1456.45 1639.46 1444.31 1668.75 1469.31 1679.11" style="fill:none;stroke:#000;stroke-miterlimit:10;"></polygon><rect id="_4a-2" x="1270.548" y="1602.935" width="27.29" height="65.355" style="fill:none;stroke:#000;stroke-miterlimit:10;"></rect><polygon id="_2-4" points="1396.29 1560.94 1396.29 1617.71 1353.71 1617.71 1353.71 1624.29 1323.13 1621.71 1324.55 1585.97 1371.26 1585.97 1371.26 1560.94 1396.29 1560.94" style="fill:none;stroke:#000;stroke-miterlimit:10;"></polygon><polygon id="_4-5" points="1354.975 1634.155 1347.964 1648.824 1330.165 1640.318 1337.176 1625.648 1317.417 1666.99 1369.69 1691.972 1389.448 1650.63 1354.975 1634.155" style="fill:none;stroke:#000;stroke-miterlimit:10;"></polygon><rect id="_6-4" x="1302.652" y="1702.825" width="73.88" height="31.409" transform="translate(-788.598 2186.138) rotate(-64.456)" style="fill:none;stroke:#000;stroke-miterlimit:10;"></rect><polygon id="_8-3" points="1317.42 1862.87 1323.51 1781.78 1270.06 1754.54 1254.08 1785.88 1286.25 1802.28 1281.68 1862.87 1317.42 1862.87" style="fill:none;stroke:#000;stroke-miterlimit:10;"></polygon><rect id="_13-2" x="1173.82" y="1862.87" width="143.6" height="35.48" style="fill:none;stroke:#000;stroke-miterlimit:10;"></rect><polygon id="_5b-2" points="1239.1 1755.1 1239.1 1760.9 1233.29 1760.9 1233.29 1780.84 1196.13 1780.84 1196.13 1755.1 1239.1 1755.1" style="fill:none;stroke:#000;stroke-miterlimit:10;"></polygon><rect x="1218.484" y="1815.194" width="16.161" height="20.806" style="fill:none;stroke:#000;stroke-miterlimit:10;"></rect><rect id="_12-2" x="1097.323" y="1471.258" width="76.497" height="37.29" style="fill:none;stroke:#000;stroke-miterlimit:10;"></rect><polygon id="_1-2" points="1133.194 1508.548 1097.323 1508.548 1097.323 1566.613 1173.82 1566.613 1173.82 1541.065 1133.194 1541.065 1133.194 1508.548" style="fill:none;stroke:#000;stroke-miterlimit:10;"></polygon><rect id="_1a-2" x="1155.387" y="1508.548" width="18.433" height="32.516" style="fill:none;stroke:#000;stroke-miterlimit:10;"></rect><polygon id="_3-4" points="1135.571 1566.613 1097.323 1566.613 1097.323 1620.161 1173.82 1620.161 1173.82 1594.613 1135.571 1594.613 1135.571 1566.613" style="fill:none;stroke:#000;stroke-miterlimit:10;"></polygon><rect x="1097.323" y="1620.161" width="30.968" height="70.387" style="fill:none;stroke:#000;stroke-miterlimit:10;"></rect><polygon id="_5-2" points="1173 1719.39 1173 1769.71 1097.32 1769.71 1097.32 1690.55 1139.52 1690.55 1139.52 1719.39 1173 1719.39" style="fill:none;stroke:#000;stroke-miterlimit:10;"></polygon><polygon id="_3a-2" points="1509.98 1665.09 1509.98 1709.59 1482.54 1709.59 1482.54 1665.09 1478.62 1665.09 1478.62 1653.27 1499.13 1653.27 1499.13 1665.09 1509.98 1665.09" style="fill:none;stroke:#000;stroke-miterlimit:10;"></polygon><rect x="1478.62" y="1746.871" width="17.799" height="20.323" style="fill:none;stroke:#000;stroke-miterlimit:10;"></rect><rect x="1496.419" y="1751.903" width="18.968" height="30.726" style="fill:none;stroke:#000;stroke-miterlimit:10;"></rect><rect id="_48-2" x="1548.68" y="1713" width="43.352" height="50.129" style="fill:none;stroke:#000;stroke-miterlimit:10;"></rect><rect x="1548.68" y="1693.13" width="21.65" height="19.87" style="fill:none;stroke:#000;stroke-miterlimit:10;"></rect><rect id="_50-2" x="1552.742" y="1763.129" width="39.29" height="52.065" style="fill:none;stroke:#000;stroke-miterlimit:10;"></rect><path id="Tarbank_52-2" d="m1592.03,1815.19v57.71c0,11.05-8.95,20-20,20h-79.97v-38.85h60.68v-38.86h39.29Z" style="fill:none;stroke:#000;stroke-miterlimit:10;"></path><polygon id="_15-2" points="1475.13 1849.32 1475.13 1892.9 1344.81 1892.9 1344.81 1828.84 1381.92 1828.84 1381.92 1849.32 1475.13 1849.32" style="fill:none;stroke:#000;stroke-miterlimit:10;"></polygon><rect x="1438.645" y="1808.705" width="21" height="21" style="fill:none;stroke:#000;stroke-miterlimit:10;"></rect><rect x="1380.581" y="1538.806" width="15.387" height="14.032" style="fill:none;stroke:#000;stroke-miterlimit:10;"></rect><rect x="1509.452" y="1622.484" width="11.484" height="10.065" style="fill:none;stroke:#000;stroke-miterlimit:10;"></rect><path id="Lexos_54-3" d="m1565.8,1959.07v92.16c0,11.05-8.95,20-20,20h-27.42v-93.96h5.39v-18.2h.76l.35-.39c1.38-1.55,3.22-2.62,5.25-3.04,1.16-.24,2.36-.27,3.53-.07l2.72.45c1.09.18,2.15.55,3.12,1.09l3.52,1.96h22.78Z" style="fill:none;stroke:#000;stroke-miterlimit:10;"></path><rect id="Lexos_54-4" x="1453.306" y="1949.323" width="32.613" height="119.187" style="fill:none;stroke:#000;stroke-miterlimit:10;"></rect><rect id="_56-2" x="1525.452" y="2081.645" width="25.419" height="35.226" style="fill:none;stroke:#000;stroke-miterlimit:10;"></rect><polygon id="Sparja_54a-2" points="1444.68 1987.9 1444.68 2036.68 1401.52 2036.68 1401.52 2054.74 1318.48 2054.74 1318.48 1987.9 1444.68 1987.9" style="fill:none;stroke:#000;stroke-miterlimit:10;"></polygon><polygon id="Crane-2" points="1279.52 1989.45 1279.52 2039.26 1121.58 2039.26 1121.58 1951.26 1173.82 1951.26 1173.82 1989.45 1279.52 1989.45" style="fill:none;stroke:#000;stroke-miterlimit:10;"></polygon><rect id="_9-2" x="1353.839" y="2103.774" width="42.065" height="90.581" style="fill:none;stroke:#000;stroke-miterlimit:10;"></rect><polygon id="_7-2" points="1301.19 2206.74 1301.19 2249.06 1092.68 2249.06 1092.68 2118.23 1138.87 2118.23 1138.87 2206.74 1301.19 2206.74" style="fill:none;stroke:#000;stroke-miterlimit:10;"></polygon><polygon id="Crash_site-2" points="1053.58 2281.06 1053.58 2335.65 1022.81 2335.65 1022.81 2316.97 1016.85 2316.97 1016.85 2308.84 1012.65 2308.84 1012.65 2281.06 1053.58 2281.06" style="fill:none;stroke:#000;stroke-miterlimit:10;"></polygon><polygon points="1280.03 2396.61 1256.33 2410.63 1253.4 2412.37 1249.27 2405.38 1252.2 2403.65 1247.13 2395.06 1244.93 2391.35 1243.88 2391.97 1234.34 2397.62 1236.45 2401.18 1107.39 2477.51 1105.28 2473.95 1105.17 2474.02 1096.94 2478.88 1087.16 2484.67 1078.65 2470.27 1088.43 2464.49 1082.63 2454.68 1229.57 2367.77 1235.64 2378.04 1249.58 2369.79 1257.82 2383.73 1260.02 2387.44 1270.83 2381.05 1280.03 2396.61" style="fill:none;stroke:#000;stroke-miterlimit:10;"></polygon><rect x="1315.178" y="2311.112" width="31.376" height="125.673" transform="translate(-1020.883 1004.237) rotate(-30.507)" style="fill:none;stroke:#000;stroke-miterlimit:10;"></rect><polygon id="Teppakot-2" points="1595.12 2225.36 1502.92 2278.65 1483.73 2245.43 1492.56 2240.32 1485.4 2227.93 1369.69 2294.81 1368.14 2292.14 1343.3 2306.5 1328.44 2280.79 1545.57 2155.29 1560.43 2181 1561.97 2183.67 1560.07 2184.77 1567.24 2197.16 1575.92 2192.14 1595.12 2225.36" style="fill:none;stroke:#000;stroke-miterlimit:10;"></polygon><polygon points="1405.45 2317.58 1370.06 2338.04 1357.19 2315.77 1351.96 2306.72 1364.59 2299.43 1369.82 2308.47 1392.58 2295.32 1405.45 2317.58" style="fill:none;stroke:#000;stroke-miterlimit:10;"></polygon><rect x="1379.409" y="2332.158" width="40.215" height="25.312" transform="translate(-985.538 1015.034) rotate(-30.027)" style="fill:none;stroke:#000;stroke-miterlimit:10;"></rect><rect x="1449.377" y="2332.431" width="16.76" height="41.89" transform="translate(-982.006 1045.327) rotate(-30.027)" style="fill:none;stroke:#000;stroke-miterlimit:10;"></rect><path id="_60-2" d="m1599,2249.65v156.16h-6.71v30.19c0,3.95-3.53,6.96-7.43,6.35l-100.31-15.74v-21.67h78.16v-88.07h-20.55l-38.45,22.22-1.28-2.22-15.86,9.17-12.72-22.01,14.78-8.54-3.99-6.89,78.07-45.13,23.92-13.82h12.37Z" style="fill:none;stroke:#000;stroke-miterlimit:10;"></path><path id="_53-2" d="m1691.323,2322.355h55.806v161.677h-67.484v-150c0-6.449,5.228-11.677,11.677-11.677Z" style="fill:none;stroke:#000;stroke-miterlimit:10;"></path><polygon id="_4-6" points="1897.065 2322.355 1897.065 2369.71 1917.968 2369.71 1917.968 2435.129 2037.968 2435.129 2037.968 2369.71 2058.871 2369.71 2058.871 2322.355 1897.065 2322.355" style="fill:none;stroke:#000;stroke-miterlimit:10;"></polygon><rect id="_2-5" x="1747.129" y="2322.355" width="149.935" height="47.355" style="fill:none;stroke:#000;stroke-miterlimit:10;"></rect><rect id="_6-5" x="2058.871" y="2322.355" width="130.323" height="47.355" style="fill:none;stroke:#000;stroke-miterlimit:10;"></rect><rect id="_80-2" x="2117.194" y="2159.452" width="75.871" height="112.581" style="fill:none;stroke:#000;stroke-miterlimit:10;"></rect><rect id="_4-7" x="2056.032" y="2158.226" width="35.484" height="122.581" style="fill:none;stroke:#000;stroke-miterlimit:10;"></rect><polygon id="Cinema-2" points="2056.03 2163.13 2056.03 2270.42 1964.68 2270.42 1964.68 2238.68 1941.77 2238.68 1941.77 2233.26 1907.32 2233.26 1907.32 2205.77 1941.77 2205.77 1941.77 2200.35 1964.68 2200.35 1964.68 2170.74 2018.87 2170.74 2018.87 2163.13 2056.03 2163.13" style="fill:none;stroke:#000;stroke-miterlimit:10;"></polygon><path d="m2152.17,1882.96c-5.21-2.6-11.54-.49-14.14,4.73l-104.11,208.74c-4.06,8.13-.75,18,7.38,22.06l7.95,3.96h38.56v-3.14h31.93v-15.97h2.03v-15h-26.71l-1.47-1.54c-1.5-1.57-2.37-3.65-2.43-5.82l-.12-3.93,35.02-70.22-6.99-3.49,13.99-28.03,20.42,9.95v45.22h-13.32v26.84h21.49v36.39h-21.49v3.48h-2.81v26.97h40.36c4.77,0,8.64-3.87,8.64-8.64v-81.29h4.65v-48.52h2.77v-82.06l-41.6-20.69Z" style="fill:none;stroke:#000;stroke-miterlimit:10;"></path><rect x="1684.161" y="2104.29" width="25.677" height="10.323" style="fill:none;stroke:#000;stroke-miterlimit:10;"></rect><polygon id="_49-2" points="1683.645 1858.484 1683.645 1870.548 1676.032 1870.548 1676.032 1931.516 1680.871 1931.516 1680.871 1946.871 1683.645 1946.871 1713.065 1946.871 1713.065 1858.484 1683.645 1858.484" style="fill:none;stroke:#000;stroke-miterlimit:10;"></polygon><path id="_8-4" d="m1938.87,1902.68v68.42h15.15c7.88,0,14.27-6.39,14.27-14.28v-18.72h36.516l10.714-20.519v-14.901h-76.65Z" style="fill:none;stroke:#000;stroke-miterlimit:10;"></path><polygon id="_6-6" points="1980.64 2001.72 1966.47 2026.26 1935.8 2008.55 1863.58 2008.55 1863.58 1996.3 1851.97 1996.3 1851.97 1998.1 1826.61 1998.1 1826.61 1955.44 1809.19 1955.44 1809.19 1921.84 1842.48 1921.84 1842.48 1913.9 1884.39 1913.9 1884.39 1908.19 1898.76 1908.19 1898.76 1921.84 1919 1921.84 1919 1931.84 1938.87 1931.84 1938.87 1971.1 1909.97 1971.1 1909.97 1957.16 1890.9 1957.16 1890.9 1955.44 1860.1 1955.44 1860.1 1966.69 1857.15 1966.69 1857.15 1984.69 1863.58 1984.69 1863.58 1983.19 1948.55 1983.19 1980.64 2001.72" style="fill:none;stroke:#000;stroke-miterlimit:10;"></polygon><polygon id="_4-8" points="1835.323 1858.484 1835.323 1889.903 1851.581 1889.903 1851.581 1906.355 1882.742 1906.355 1882.742 1889.903 1899.387 1889.903 1899.387 1858.484 1835.323 1858.484" style="fill:none;stroke:#000;stroke-miterlimit:10;"></polygon><polygon id="Theatre-2" points="1782.484 1863 1782.484 1854.045 1713.065 1854.045 1713.065 1902.68 1782.484 1902.68 1782.484 1893.581 1791.194 1893.581 1791.194 1863 1782.484 1863" style="fill:none;stroke:#000;stroke-miterlimit:10;"></polygon><polygon id="_Вести_51-2" points="1794.871 2078.226 1794.871 2020.355 1804.161 2020.355 1804.161 1960.548 1794.871 1960.548 1794.871 1921.129 1804.161 1921.129 1804.161 1893.581 1782.484 1893.581 1782.484 1902.68 1734.484 1902.68 1734.484 1999.387 1727.903 1999.387 1727.903 2018.484 1734.484 2018.484 1734.484 2058.962 1727.903 2058.962 1727.903 2079 1734.484 2079 1734.484 2106.484 1752.129 2106.484 1752.129 2114.613 1826.323 2114.613 1826.323 2078.226 1794.871 2078.226" style="fill:none;stroke:#000;stroke-miterlimit:10;"></polygon><polygon id="_Вести_1-2" points="1892.23 2065.55 1892.23 2088.68 1894.92 2088.68 1894.92 2119.45 1835.71 2119.45 1835.71 2088.68 1855.45 2088.68 1855.45 2065.06 1835.71 2065.06 1835.71 2032.35 1906.55 2032.35 1902 2065.55 1892.23 2065.55" style="fill:none;stroke:#000;stroke-miterlimit:10;"></polygon><rect id="_3-5" x="1894.92" y="2090.032" width="80.919" height="29.418" style="fill:none;stroke:#000;stroke-miterlimit:10;"></rect><polygon points="1997.97 2075.9 1991.71 2090.03 1930.35 2090.03 1930.35 2041.26 1949.71 2041.26 1949.71 2075.9 1997.97 2075.9" style="fill:none;stroke:#000;stroke-miterlimit:10;"></polygon><path id="_3-6" d="m2020.92,2029.88l-22.95,46.02h-27.23l-.97-4.06c-.13-.55-.39-1.07-.75-1.5l-2.51-3.02c-.52-.62-.8-1.41-.8-2.22v-1.37c0-.9.25-1.78.73-2.54l.87-1.41c.48-.77,1.07-1.47,1.75-2.08l4.37-3.87,19.03-38.15,28.46,14.2Z" style="fill:none;stroke:#000;stroke-miterlimit:10;"></path><path id="_2-6" d="m2095.89,1879.56l-74.97,150.32-28.46-14.2,17.33-34.74-12.5-6.23,10.99-22.03,12.49,6.23,7.51-15.06-12.49-6.23,10.95-21.95,12.49,6.23,18.98-38.05h-14.92v-27.82h38.81l7.11,3.55c7.36,3.67,10.35,12.62,6.68,19.98Z" style="fill:none;stroke:#000;stroke-miterlimit:10;"></path><rect id="_10-2" x="1982.613" y="1856.03" width="54.581" height="27.82" style="fill:none;stroke:#000;stroke-miterlimit:10;"></rect><polygon points="1975.74 1865.52 1975.74 1881.85 1969.65 1881.85 1969.65 1890.48 1957.94 1890.48 1957.94 1865.52 1975.74 1865.52" style="fill:none;stroke:#000;stroke-miterlimit:10;"></polygon><rect x="1809.19" y="1862.226" width="23.229" height="59.614" style="fill:none;stroke:#000;stroke-miterlimit:10;"></rect></g></g><g id="btr"><g><polyline points="1411.048 1451.516 1408.548 1451.516 1408.492 1454.016" style="fill:none;stroke:#009245;stroke-linecap:round;stroke-miterlimit:10;stroke-width:5px;"></polyline><polyline points="1408.272 1463.869 1404.29 1641.968 1348.161 1783.258 1337.71 1812.29 1328.032 1856.419 1328.032 1903.572" style="fill:none;stroke:#009245;stroke-dasharray:0 0 4.928 9.856;stroke-linecap:round;stroke-miterlimit:10;stroke-width:5px;"></polyline><polyline points="1328.032 1908.5 1328.032 1911 1325.532 1911" style="fill:none;stroke:#009245;stroke-linecap:round;stroke-miterlimit:10;stroke-width:5px;"></polyline><line x1="1314.69" y1="1911" x2="1238.792" y2="1911" style="fill:none;stroke:#009245;stroke-dasharray:0 0 5.421 10.843;stroke-linecap:round;stroke-miterlimit:10;stroke-width:5px;"></line><polyline points="1233.371 1911 1230.871 1911 1230.871 1913.5" style="fill:none;stroke:#009245;stroke-linecap:round;stroke-miterlimit:10;stroke-width:5px;"></polyline><polyline points="1230.871 1917.403 1230.871 1919.903 1233.371 1919.903" style="fill:none;stroke:#009245;stroke-linecap:round;stroke-miterlimit:10;stroke-width:5px;"></polyline><polyline points="1243.208 1919.903 1545.194 1919.903 1607.077 1916.446" style="fill:none;stroke:#009245;stroke-dasharray:0 0 4.918 9.837;stroke-linecap:round;stroke-miterlimit:10;stroke-width:5px;"></polyline><polyline points="1611.988 1916.172 1614.484 1916.032 1615.571 1913.781" style="fill:none;stroke:#009245;stroke-linecap:round;stroke-miterlimit:10;stroke-width:5px;"></polyline><polyline points="1619.986 1904.306 1631.516 1834.742 1633.776 1833.099" style="fill:none;stroke:#009245;stroke-dasharray:0 0 5.236 10.472;stroke-linecap:round;stroke-miterlimit:10;stroke-width:5px;"></polyline><polyline points="1638.01 1830.019 1640.032 1828.548 1642.471 1829.097" style="fill:none;stroke:#009245;stroke-linecap:round;stroke-miterlimit:10;stroke-width:5px;"></polyline><polyline points="1653.077 1831.483 1655.516 1832.032 1655.516 1834.532" style="fill:none;stroke:#009245;stroke-linecap:round;stroke-miterlimit:10;stroke-width:5px;"></polyline><polyline points="1655.516 1844.527 1655.516 2256.677 1658.978 2289.094" style="fill:none;stroke:#009245;stroke-dasharray:0 0 4.997 9.994;stroke-linecap:round;stroke-miterlimit:10;stroke-width:5px;"></polyline><polyline points="1659.509 2294.062 1659.774 2296.548 1662.271 2296.672" style="fill:none;stroke:#009245;stroke-linecap:round;stroke-miterlimit:10;stroke-width:5px;"></polyline><polyline points="1672.442 2297.173 1714.742 2299.258 1899.387 2299.258 1928.419 2299.258 1942.163 2297.759" style="fill:none;stroke:#009245;stroke-dasharray:0 0 5.092 10.183;stroke-linecap:round;stroke-miterlimit:10;stroke-width:5px;"></polyline><polyline points="1947.224 2297.207 1949.71 2296.935 1950.638 2294.614" style="fill:none;stroke:#009245;stroke-linecap:round;stroke-miterlimit:10;stroke-width:5px;"></polyline><polyline points="1953.581 2284.711 1953.581 2151.774 1955.044 2148.959" style="fill:none;stroke:#009245;stroke-dasharray:0 0 5.235 10.47;stroke-linecap:round;stroke-miterlimit:10;stroke-width:5px;"></polyline><polyline points="1957.46 2144.315 1958.613 2142.097 1961.1 2141.841" style="fill:none;stroke:#009245;stroke-linecap:round;stroke-miterlimit:10;stroke-width:5px;"></polyline><polyline points="1970.94 2140.828 1984.935 2139.387 1995.774 2132.032 2112.29 1889.71 2116.161 1872.677 2111.903 1852.548 2101.452 1841.323 2082.097 1828.032 2062.355 1825.71 1883.516 1825.71 1881.45 1825.193" style="fill:none;stroke:#009245;stroke-dasharray:0 0 4.946 9.892;stroke-linecap:round;stroke-miterlimit:10;stroke-width:5px;"></polyline><polyline points="1876.651 1823.993 1874.226 1823.387 1873.415 1821.022" style="fill:none;stroke:#009245;stroke-linecap:round;stroke-miterlimit:10;stroke-width:5px;"></polyline><polyline points="1874.233 1811.123 1892.032 1722.484 1903.645 1706.226 1918.355 1693.839 1923.387 1680.29 1915.258 1595.516 1908.677 1572.677 1916.419 1519.258 1914.987 1510.867" style="fill:none;stroke:#009245;stroke-dasharray:0 0 5.089 10.177;stroke-linecap:round;stroke-miterlimit:10;stroke-width:5px;"></polyline><polyline points="1914.13 1505.851 1913.71 1503.387 1911.317 1502.662" style="fill:none;stroke:#009245;stroke-linecap:round;stroke-miterlimit:10;stroke-width:5px;"></polyline><polyline points="1901.737 1499.757 1840.935 1481.323 1673.71 1455 1592.419 1451.516 1416.054 1451.516" style="fill:none;stroke:#009245;stroke-dasharray:0 0 5.006 10.011;stroke-linecap:round;stroke-miterlimit:10;stroke-width:5px;"></polyline></g><g id="stops"><g><circle cx="1647.968" cy="1828.355" r="7.5" style="fill:#00bf55;"></circle><circle cx="1231.226" cy="1916.581" r="7.5" style="fill:#00bf55;"></circle><circle cx="1410.919" cy="1455.726" r="7.5" style="fill:#00bf55;"></circle><circle cx="1914.29" cy="1543.968" r="7.5" style="fill:#00bf55;"></circle><circle cx="2114.774" cy="1880.258" r="7.5" style="fill:#00bf55;"></circle><circle cx="1952.774" cy="2231.032" r="7.5" style="fill:#00bf55;"></circle></g><g><circle cx="1647.968" cy="1828.355" r="7.5" style="fill:none;stroke:#000;stroke-miterlimit:10;"></circle><circle cx="1231.226" cy="1916.581" r="7.5" style="fill:none;stroke:#000;stroke-miterlimit:10;"></circle><circle cx="1410.919" cy="1455.726" r="7.5" style="fill:none;stroke:#000;stroke-miterlimit:10;"></circle><circle cx="1914.29" cy="1543.968" r="7.5" style="fill:none;stroke:#000;stroke-miterlimit:10;"></circle><circle cx="2114.774" cy="1880.258" r="7.5" style="fill:none;stroke:#000;stroke-miterlimit:10;"></circle><circle cx="1952.774" cy="2231.032" r="7.5" style="fill:none;stroke:#000;stroke-miterlimit:10;"></circle></g></g></g><g id="streest-names"><text transform="translate(1916.352 1468.877) rotate(9.995)" style="font-family:Arial-BoldMT, Arial;font-size:20px;font-weight:700;"><tspan x="0" y="0">Klimov st.</tspan></text><text transform="translate(1897.679 1495.359) rotate(9.995)" style="font-family:Arial-BoldMT, Arial;font-size:20px;font-weight:700;"><tspan x="0" y="0" style="letter-spacing:-.013em;">у</tspan><tspan x="10.859" y="0">л. Кли</tspan><tspan x="71.885" y="0" style="letter-spacing:-.013em;">м</tspan><tspan x="86.416" y="0">о</tspan><tspan x="98.633" y="0" style="letter-spacing:-.013em;">в</tspan><tspan x="110.664" y="0">а</tspan></text><text transform="translate(1283.181 1425.429)" style="font-family:Arial-BoldMT, Arial;font-size:20px;font-weight:700;"><tspan x="0" y="0">Klimov st.</tspan></text><text transform="translate(1269.387 1454.75)" style="font-family:Arial-BoldMT, Arial;font-size:20px;font-weight:700;"><tspan x="0" y="0" style="letter-spacing:-.013em;">у</tspan><tspan x="10.859" y="0">л. Кли</tspan><tspan x="71.885" y="0" style="letter-spacing:-.013em;">м</tspan><tspan x="86.416" y="0">о</tspan><tspan x="98.633" y="0" style="letter-spacing:-.013em;">в</tspan><tspan x="110.664" y="0">а</tspan></text><text transform="translate(1626.312 1632.549) rotate(-90)" style="font-family:Arial-BoldMT, Arial;font-size:20px;font-weight:700;"><tspan x="0" y="0">Primorskij</tspan><tspan x="97.822" y="0" xml:space="preserve" style="letter-spacing:-.037em;"> A</tspan><tspan x="116.338" y="0">ve.</tspan></text><text transform="translate(1660.053 1653.27) rotate(-90)" style="font-family:Arial-BoldMT, Arial;font-size:20px;font-weight:700;"><tspan x="0" y="0">При</tspan><tspan x="38.887" y="0" style="letter-spacing:-.013em;">м</tspan><tspan x="53.418" y="0">орский пр</tspan><tspan x="153.428" y="0" style="letter-spacing:-.013em;">о</tspan><tspan x="165.381" y="0">сп.</tspan></text><text transform="translate(1626.312 2225.891) rotate(-90)" style="font-family:Arial-BoldMT, Arial;font-size:20px;font-weight:700;"><tspan x="0" y="0">Primorskij</tspan><tspan x="97.822" y="0" xml:space="preserve" style="letter-spacing:-.037em;"> A</tspan><tspan x="116.338" y="0">ve.</tspan></text><text transform="translate(1660.053 2246.609) rotate(-90)" style="font-family:Arial-BoldMT, Arial;font-size:20px;font-weight:700;"><tspan x="0" y="0">При</tspan><tspan x="38.887" y="0" style="letter-spacing:-.013em;">м</tspan><tspan x="53.418" y="0">орский пр</tspan><tspan x="153.428" y="0" style="letter-spacing:-.013em;">о</tspan><tspan x="165.381" y="0">сп.</tspan></text><text transform="translate(1191.056 1811.027) rotate(-90)" style="font-family:Arial-BoldMT, Arial;font-size:18px;font-weight:700;"><tspan x="0" y="0">Kamchatskaya st.</tspan></text><text transform="translate(1191.056 1632.549) rotate(-90)" style="font-family:Arial-BoldMT, Arial;font-size:18px;font-weight:700;"><tspan x="0" y="0" style="letter-spacing:-.013em;">у</tspan><tspan x="9.773" y="0">л. </tspan><tspan x="31.21" y="0" style="letter-spacing:.012em;">К</tspan><tspan x="42.416" y="0">амча</tspan><tspan x="86.203" y="0" style="letter-spacing:-.013em;">т</tspan><tspan x="94.781" y="0">ская</tspan></text><text transform="translate(1348.101 1782.502) rotate(-66.198)" style="font-family:Arial-BoldMT, Arial;font-size:10px;font-weight:700;"><tspan x="0" y="0">Zmejskij</tspan><tspan x="40.02" y="0" style="letter-spacing:-.037em;"></tspan><tspan x="42.427" y="0">Alley</tspan></text><text transform="translate(1381.726 1706.713) rotate(-69.075)" style="font-family:Arial-BoldMT, Arial;font-size:10px;font-weight:700;"><tspan x="0" y="0">Змейский пер.</tspan></text><text transform="translate(1255.168 1923.058)" style="font-family:Arial-BoldMT, Arial;font-size:18px;font-weight:700;"><tspan x="0" y="0">Chekannaya st.</tspan></text><text transform="translate(1433.647 1923.058)" style="font-family:Arial-BoldMT, Arial;font-size:18px;font-weight:700;"><tspan x="0" y="0" style="letter-spacing:-.013em;">у</tspan><tspan x="9.773" y="0">л. Чеканная</tspan></text><text transform="translate(1771.794 1843.168)" style="font-family:Arial-BoldMT, Arial;font-size:22px;font-weight:700;"><tspan x="0" y="0">Nikitskaya st.</tspan></text><text transform="translate(1950.272 1843.168)" style="font-family:Arial-BoldMT, Arial;font-size:22px;font-weight:700;"><tspan x="0" y="0" style="letter-spacing:-.013em;">у</tspan><tspan x="11.945" y="0">л. Ники</tspan><tspan x="92.093" y="0" style="letter-spacing:-.013em;">т</tspan><tspan x="102.577" y="0">ская</tspan></text><text transform="translate(2021.064 2086.576) rotate(-63.434)" style="font-family:Arial-BoldMT, Arial;font-size:16px;font-weight:700;"><tspan x="0" y="0">Malevicha st.</tspan></text><text transform="translate(2068.471 1988.32) rotate(-63.495)" style="font-family:Arial-BoldMT, Arial;font-size:16px;font-weight:700;"><tspan x="0" y="0" style="letter-spacing:-.013em;">у</tspan><tspan x="8.688" y="0">л. </tspan><tspan x="27.742" y="0" style="letter-spacing:.012em;">М</tspan><tspan x="41.266" y="0">а</tspan><tspan x="50.164" y="0" style="letter-spacing:-.013em;">л</tspan><tspan x="60.117" y="0">евича</tspan></text><text transform="translate(1791.813 2145.17)" style="font-family:Arial-BoldMT, Arial;font-size:14px;font-weight:700;"><tspan x="0" y="0" style="letter-spacing:-.055em;">V</tspan><tspan x="8.565" y="0">erhnyaya Sadovaya st.</tspan></text><text transform="translate(1998.55 2145.17)" style="font-family:Arial-BoldMT, Arial;font-size:14px;font-weight:700;"><tspan x="0" y="0" style="letter-spacing:-.013em;">у</tspan><tspan x="7.602" y="0">л. Ве</tspan><tspan x="42.171" y="0" style="letter-spacing:-.013em;">р</tspan><tspan x="50.538" y="0">хняя </tspan><tspan x="87.008" y="0" style="letter-spacing:.012em;">С</tspan><tspan x="97.289" y="0">адо</tspan><tspan x="122.514" y="0" style="letter-spacing:-.013em;">в</tspan><tspan x="130.936" y="0">ая</tspan></text><text transform="translate(1757.266 2305.187)" style="font-family:Arial-BoldMT, Arial;font-size:14px;font-weight:700;"><tspan x="0" y="0">Nizhnyaya Sadovaya st.</tspan></text><text transform="translate(1970.375 2305.187)" style="font-family:Arial-BoldMT, Arial;font-size:14px;font-weight:700;"><tspan x="0" y="0" style="letter-spacing:-.013em;">у</tspan><tspan x="7.602" y="0">л. Нижняя </tspan><tspan x="81.601" y="0" style="letter-spacing:.012em;">С</tspan><tspan x="91.882" y="0">адо</tspan><tspan x="117.106" y="0" style="letter-spacing:-.013em;">в</tspan><tspan x="125.528" y="0">ая</tspan></text><text transform="translate(1195.228 2345.565) rotate(-29.608)" style="font-family:Arial-BoldMT, Arial;font-size:14px;font-weight:700;"><tspan x="0" y="0">Razvedchikov st.</tspan></text><text transform="translate(1350.402 2257.385) rotate(-29.608)" style="font-family:Arial-BoldMT, Arial;font-size:14px;font-weight:700;"><tspan x="0" y="0" style="letter-spacing:-.013em;">у</tspan><tspan x="7.602" y="0">л. </tspan><tspan x="24.274" y="0" style="letter-spacing:-.013em;">Р</tspan><tspan x="33.428" y="0" style="letter-spacing:.012em;">а</tspan><tspan x="41.385" y="0">з</tspan><tspan x="48.344" y="0" style="letter-spacing:-.013em;">в</tspan><tspan x="56.766" y="0">едчи</tspan><tspan x="90.173" y="0" style="letter-spacing:-.013em;">к</tspan><tspan x="96.995" y="0">ов</tspan></text></g><g id="names"><text transform="translate(1780.73 1336.759) rotate(9.995)" style="font-family:ArialMT, Arial;font-size:14px;"><tspan x="0" y="0">Beluga</tspan></text><text transform="translate(2039.962 1385.907) rotate(9.995)" style="font-family:ArialMT, Arial;font-size:14px;"><tspan x="0" y="0">Klimov Shopping Mall</tspan></text><text transform="translate(2027.735 1399.136) rotate(9.995)" style="font-family:ArialMT, Arial;font-size:14px;"><tspan x="0" y="0" style="letter-spacing:-.078em;">Т</tspan><tspan x="7.458" y="0">ор</tspan><tspan x="23.03" y="0" style="letter-spacing:-.022em;">г</tspan><tspan x="27.829" y="0">овый </tspan><tspan x="64.825" y="0" style="letter-spacing:.011em;">Д</tspan><tspan x="74.464" y="0">ом Климо</tspan><tspan x="137.32" y="0" style="letter-spacing:-.011em;">в</tspan><tspan x="144.601" y="0">а</tspan></text><text transform="translate(1776.933 1352.615) rotate(9.995)" style="font-family:ArialMT, Arial;font-size:14px;"><tspan x="0" y="0">Б</tspan><tspan x="9.188" y="0" style="letter-spacing:-.033em;">е</tspan><tspan x="16.509" y="0">лу</tspan><tspan x="31.678" y="0" style="letter-spacing:-.022em;">г</tspan><tspan x="36.477" y="0">а</tspan></text><text transform="translate(1768.568 1529.337) rotate(9.995)" style="font-family:ArialMT, Arial;font-size:14px;"><tspan x="0" y="0">Pinewood Hotel</tspan></text><text transform="translate(1746.493 1772.137)" style="font-family:ArialMT, Arial;font-size:10px;"><tspan x="0" y="0">Sparja Express</tspan></text><text transform="translate(1706.656 1714.877) rotate(-90)" style="font-family:ArialMT, Arial;font-size:10px;"><tspan x="0" y="0">Burger Spot</tspan></text><text transform="translate(1982.569 2223.456)" style="font-family:ArialMT, Arial;font-size:14px;"><tspan x="0" y="0">Cinema</tspan></text><text transform="translate(1868.561 1998.961)" style="font-family:ArialMT, Arial;font-size:10px;"><tspan x="0" y="0">Abandoned Factory</tspan></text><text transform="translate(1549.585 2045.295) rotate(-90)" style="font-family:Arial-BoldMT, Arial;font-size:20px;font-weight:700;"><tspan x="0" y="0">Lexos</tspan></text><text transform="translate(1494.418 2204.465) rotate(-29.608)" style="font-family:ArialMT, Arial;font-size:14px;"><tspan x="0" y="0" style="letter-spacing:-.111em;">T</tspan><tspan x="7" y="0">eppakot</tspan></text><text transform="translate(1555.483 2197.278) rotate(60.392)" style="font-family:ArialMT, Arial;font-size:10px;"><tspan x="0" y="0">Koener</tspan></text><text transform="translate(1774.025 2099.488)" style="font-family:ArialMT, Arial;font-size:10px;"><tspan x="0" y="0">Вести</tspan></text><text transform="translate(1379.799 2182.109) rotate(-90)" style="font-family:ArialMT, Arial;font-size:14px;"><tspan x="0" y="0">Concordia</tspan></text><text transform="translate(1360.512 2022.967)" style="font-family:ArialMT, Arial;font-size:14px;"><tspan x="0" y="0">Sparja</tspan></text><text transform="translate(1523.907 1876.536)" style="font-family:ArialMT, Arial;font-size:10px;"><tspan x="0" y="0" style="letter-spacing:-.111em;">T</tspan><tspan x="5" y="0">arbank</tspan></text><text transform="translate(1568.991 1649.564) rotate(-90)" style="font-family:ArialMT, Arial;font-size:14px;"><tspan x="0" y="0">Post O</tspan><tspan x="42.793" y="0" style="letter-spacing:-.018em;">f</tspan><tspan x="46.43" y="0">fice</tspan></text><text transform="translate(1583.789 1637.029) rotate(-90)" style="font-family:ArialMT, Arial;font-size:14px;"><tspan x="0" y="0">П</tspan><tspan x="10.062" y="0" style="letter-spacing:-.022em;">о</tspan><tspan x="17.541" y="0">ч</tspan><tspan x="24.835" y="0" style="letter-spacing:-.011em;">т</tspan><tspan x="31.09" y="0">а</tspan></text><text transform="translate(1566.369 1760.426) rotate(-90)" style="font-family:ArialMT, Arial;font-size:10px;"><tspan x="0" y="0">Pharmacy</tspan></text><text transform="translate(1581.126 1754.158) rotate(-90)" style="font-family:ArialMT, Arial;font-size:10px;"><tspan x="0" y="0">Ап</tspan><tspan x="12.085" y="0" style="letter-spacing:-.011em;">т</tspan><tspan x="16.553" y="0">е</tspan><tspan x="22.114" y="0" style="letter-spacing:.022em;">к</tspan><tspan x="26.709" y="0">а</tspan></text><text transform="translate(1139.189 2230.896)" style="font-family:ArialMT, Arial;font-size:14px;"><tspan x="0" y="0">Concordia</tspan></text><text transform="translate(1118.402 2231.062) rotate(-90)" style="font-family:ArialMT, Arial;font-size:10px;"><tspan x="0" y="0">Goshan Mini</tspan></text><text transform="translate(1850.993 2107.796)" style="font-family:ArialMT, Arial;font-size:10px;"><tspan x="0" y="0">Вести</tspan></text><text transform="translate(1733.152 1880.57)" style="font-family:ArialMT, Arial;font-size:10px;"><tspan x="0" y="0">Theatre</tspan></text><text transform="translate(2011.712 1785.77)" style="font-family:ArialMT, Arial;font-size:10px;"><tspan x="0" y="0">Shestyorochka</tspan></text><text transform="translate(2017.475 1796.302)" style="font-family:ArialMT, Arial;font-size:10px;"><tspan x="0" y="0">Шес</tspan><tspan x="19.727" y="0" style="letter-spacing:-.011em;">т</tspan><tspan x="24.194" y="0">ер</tspan><tspan x="35.317" y="0" style="letter-spacing:-.022em;">о</tspan><tspan x="40.659" y="0">ч</tspan><tspan x="45.869" y="0" style="letter-spacing:.022em;">к</tspan><tspan x="50.464" y="0">а</tspan></text><text transform="translate(1553.491 1143.898) rotate(-90)" style="font-family:ArialMT, Arial;font-size:14px;"><tspan x="0" y="0">Cardinal Hotel</tspan></text><text transform="translate(1438.795 1361.588)" style="font-family:ArialMT, Arial;font-size:14px;"><tspan x="0" y="0">President</tspan></text><text transform="translate(1555.555 1352.609) rotate(-90)" style="font-family:ArialMT, Arial;font-size:14px;"><tspan x="0" y="0" style="letter-spacing:-.111em;">T</tspan><tspan x="7" y="0">erragroup</tspan></text><text transform="translate(1162.342 1293.831)" style="font-family:ArialMT, Arial;font-size:14px;"><tspan x="0" y="0">Expo</tspan></text><text transform="translate(1111.344 1557.834)" style="font-family:ArialMT, Arial;font-size:14px;"><tspan x="0" y="0">Museum</tspan></text><text transform="translate(1237.811 1721.912) rotate(-90)" style="font-family:ArialMT, Arial;font-size:14px;"><tspan x="0" y="0">School</tspan></text><text transform="translate(1207.258 1766.737)" style="font-family:ArialMT, Arial;font-size:10px;"><tspan x="0" y="0" style="letter-spacing:-.055em;">V</tspan><tspan x="6.118" y="0">et</tspan><tspan x="-4.996" y="9">Clinic</tspan></text><text transform="translate(1237.811 1669.518) rotate(-90)" style="font-family:ArialMT, Arial;font-size:14px;"><tspan x="0" y="0">Ш</tspan><tspan x="12.831" y="0" style="letter-spacing:.011em;">к</tspan><tspan x="19.113" y="0" style="letter-spacing:-.022em;">о</tspan><tspan x="26.592" y="0">ла</tspan></text><text transform="translate(1385.558 1186.839)" style="font-family:ArialMT, Arial;font-size:10px;"><tspan x="0" y="0">Cardinal</tspan><tspan x="37.241" y="0" style="letter-spacing:-.055em;"></tspan><tspan x="39.468" y="0">Apartments</tspan></text><text transform="translate(1397.543 1204.194)" style="font-family:ArialMT, Arial;font-size:10px;"><tspan x="0" y="0">ЖК Ка</tspan><tspan x="29.224" y="0" style="letter-spacing:-.023em;">р</tspan><tspan x="34.556" y="0">динал</tspan></text><text transform="translate(1192.943 2017.539)" style="font-family:ArialMT, Arial;font-size:14px;"><tspan x="0" y="0">Construction</tspan></text></g><g id="mines"><g style="opacity:.5;"><rect x="1513.742" y="1938.968" width="33.581" height="8.806" style="fill:#ed1c24;"></rect><polygon points="1555.548 1939.452 1555.548 1970.323 1566.581 1970.323 1566.581 2019.194 1573.548 2019.194 1573.548 1980.774 1587.871 1980.774 1587.871 1939.452 1555.548 1939.452" style="fill:#ed1c24;"></polygon><polygon points="1493.903 1946.226 1493.903 1932.29 1486.452 1932.29 1486.452 1937.71 1456.935 1937.71 1456.935 1946.226 1493.903 1946.226" style="fill:#ed1c24;"></polygon><polygon points="1552.806 2067.387 1552.806 2078.29 1573.968 2078.29 1569.258 2068.51 1574.742 2062.226 1565.707 2053.147 1563.258 2060.29 1560.742 2062.613 1555.968 2065.719 1552.806 2067.387" style="fill:#ed1c24;"></polygon><polygon points="1487.57 2149.394 1496.935 2163.903 1472.419 2179 1469.903 2175.258 1451.645 2186.097 1445.452 2175.968 1445.452 2155 1437.774 2155 1437.774 2120.935 1451.968 2120.935 1451.968 2169 1487.57 2149.394" style="fill:#ed1c24;"></polygon><rect x="1445.903" y="1992.581" width="5.903" height="47.516" style="fill:#ed1c24;"></rect></g><g><g><polyline points="1547.323 1945.774 1547.323 1947.774 1545.323 1947.774" style="fill:none;stroke:#ed1c24;stroke-miterlimit:10;stroke-width:2px;"></polyline><line x1="1541.097" y1="1947.774" x2="1517.855" y2="1947.774" style="fill:none;stroke:#ed1c24;stroke-dasharray:0 0 4.226 4.226;stroke-miterlimit:10;stroke-width:2px;"></line><polyline points="1515.742 1947.774 1513.742 1947.774 1513.742 1945.774" style="fill:none;stroke:#ed1c24;stroke-miterlimit:10;stroke-width:2px;"></polyline><polyline points="1513.742 1940.968 1513.742 1938.968 1515.742 1938.968" style="fill:none;stroke:#ed1c24;stroke-miterlimit:10;stroke-width:2px;"></polyline><line x1="1519.968" y1="1938.968" x2="1543.21" y2="1938.968" style="fill:none;stroke:#ed1c24;stroke-dasharray:0 0 4.226 4.226;stroke-miterlimit:10;stroke-width:2px;"></line><polyline points="1545.323 1938.968 1547.323 1938.968 1547.323 1940.968" style="fill:none;stroke:#ed1c24;stroke-miterlimit:10;stroke-width:2px;"></polyline></g><g><polyline points="1557.548 1939.452 1555.548 1939.452 1555.548 1941.452" style="fill:none;stroke:#ed1c24;stroke-miterlimit:10;stroke-width:2px;"></polyline><line x1="1555.548" y1="1945.29" x2="1555.548" y2="1966.403" style="fill:none;stroke:#ed1c24;stroke-dasharray:0 0 3.839 3.839;stroke-miterlimit:10;stroke-width:2px;"></line><polyline points="1555.548 1968.323 1555.548 1970.323 1557.548 1970.323" style="fill:none;stroke:#ed1c24;stroke-miterlimit:10;stroke-width:2px;"></polyline><line x1="1559.892" y1="1970.323" x2="1563.409" y2="1970.323" style="fill:none;stroke:#ed1c24;stroke-dasharray:0 0 2.344 2.344;stroke-miterlimit:10;stroke-width:2px;"></line><polyline points="1564.581 1970.323 1566.581 1970.323 1566.581 1972.323" style="fill:none;stroke:#ed1c24;stroke-miterlimit:10;stroke-width:2px;"></polyline><line x1="1566.581" y1="1976.402" x2="1566.581" y2="2015.154" style="fill:none;stroke:#ed1c24;stroke-dasharray:0 0 4.079 4.079;stroke-miterlimit:10;stroke-width:2px;"></line><polyline points="1566.581 2017.194 1566.581 2019.194 1568.581 2019.194" style="fill:none;stroke:#ed1c24;stroke-miterlimit:10;stroke-width:2px;"></polyline><polyline points="1571.548 2019.194 1573.548 2019.194 1573.548 2017.194" style="fill:none;stroke:#ed1c24;stroke-miterlimit:10;stroke-width:2px;"></polyline><line x1="1573.548" y1="2013.369" x2="1573.548" y2="1984.686" style="fill:none;stroke:#ed1c24;stroke-dasharray:0 0 3.824 3.824;stroke-miterlimit:10;stroke-width:2px;"></line><polyline points="1573.548 1982.774 1573.548 1980.774 1575.548 1980.774" style="fill:none;stroke:#ed1c24;stroke-miterlimit:10;stroke-width:2px;"></polyline><line x1="1578.989" y1="1980.774" x2="1584.151" y2="1980.774" style="fill:none;stroke:#ed1c24;stroke-dasharray:0 0 3.441 3.441;stroke-miterlimit:10;stroke-width:2px;"></line><polyline points="1585.871 1980.774 1587.871 1980.774 1587.871 1978.774" style="fill:none;stroke:#ed1c24;stroke-miterlimit:10;stroke-width:2px;"></polyline><line x1="1587.871" y1="1974.627" x2="1587.871" y2="1943.525" style="fill:none;stroke:#ed1c24;stroke-dasharray:0 0 4.147 4.147;stroke-miterlimit:10;stroke-width:2px;"></line><polyline points="1587.871 1941.452 1587.871 1939.452 1585.871 1939.452" style="fill:none;stroke:#ed1c24;stroke-miterlimit:10;stroke-width:2px;"></polyline><line x1="1581.825" y1="1939.452" x2="1559.571" y2="1939.452" style="fill:none;stroke:#ed1c24;stroke-dasharray:0 0 4.046 4.046;stroke-miterlimit:10;stroke-width:2px;"></line></g><g><polyline points="1491.903 1946.226 1493.903 1946.226 1493.903 1944.226" style="fill:none;stroke:#ed1c24;stroke-miterlimit:10;stroke-width:2px;"></polyline><line x1="1493.903" y1="1940.914" x2="1493.903" y2="1935.946" style="fill:none;stroke:#ed1c24;stroke-dasharray:0 0 3.312 3.312;stroke-miterlimit:10;stroke-width:2px;"></line><polyline points="1493.903 1934.29 1493.903 1932.29 1491.903 1932.29" style="fill:none;stroke:#ed1c24;stroke-miterlimit:10;stroke-width:2px;"></polyline><polyline points="1488.452 1932.29 1486.452 1932.29 1486.452 1934.29" style="fill:none;stroke:#ed1c24;stroke-miterlimit:10;stroke-width:2px;"></polyline><polyline points="1486.452 1935.71 1486.452 1937.71 1484.452 1937.71" style="fill:none;stroke:#ed1c24;stroke-miterlimit:10;stroke-width:2px;"></polyline><line x1="1480.806" y1="1937.71" x2="1460.758" y2="1937.71" style="fill:none;stroke:#ed1c24;stroke-dasharray:0 0 3.645 3.645;stroke-miterlimit:10;stroke-width:2px;"></line><polyline points="1458.935 1937.71 1456.935 1937.71 1456.935 1939.71" style="fill:none;stroke:#ed1c24;stroke-miterlimit:10;stroke-width:2px;"></polyline><polyline points="1456.935 1944.226 1456.935 1946.226 1458.935 1946.226" style="fill:none;stroke:#ed1c24;stroke-miterlimit:10;stroke-width:2px;"></polyline><line x1="1462.599" y1="1946.226" x2="1490.072" y2="1946.226" style="fill:none;stroke:#ed1c24;stroke-dasharray:0 0 3.663 3.663;stroke-miterlimit:10;stroke-width:2px;"></line></g><g><polyline points="1554.575 2066.454 1552.806 2067.387 1552.806 2069.387" style="fill:none;stroke:#ed1c24;stroke-miterlimit:10;stroke-width:2px;"></polyline><line x1="1552.806" y1="2071.688" x2="1552.806" y2="2075.14" style="fill:none;stroke:#ed1c24;stroke-dasharray:0 0 2.301 2.301;stroke-miterlimit:10;stroke-width:2px;"></line><polyline points="1552.806 2076.29 1552.806 2078.29 1554.806 2078.29" style="fill:none;stroke:#ed1c24;stroke-miterlimit:10;stroke-width:2px;"></polyline><line x1="1558.239" y1="2078.29" x2="1570.252" y2="2078.29" style="fill:none;stroke:#ed1c24;stroke-dasharray:0 0 3.432 3.432;stroke-miterlimit:10;stroke-width:2px;"></line><polyline points="1571.968 2078.29 1573.968 2078.29 1573.1 2076.488" style="fill:none;stroke:#ed1c24;stroke-miterlimit:10;stroke-width:2px;"></polyline><line x1="1572.109" y1="2074.43" x2="1570.622" y2="2071.341" style="fill:none;stroke:#ed1c24;stroke-dasharray:0 0 2.285 2.285;stroke-miterlimit:10;stroke-width:2px;"></line><polyline points="1570.126 2070.312 1569.258 2068.51 1570.573 2067.003" style="fill:none;stroke:#ed1c24;stroke-miterlimit:10;stroke-width:2px;"></polyline><polyline points="1573.427 2063.733 1574.742 2062.226 1573.331 2060.808" style="fill:none;stroke:#ed1c24;stroke-miterlimit:10;stroke-width:2px;"></polyline><line x1="1571.26" y1="2058.727" x2="1568.154" y2="2055.605" style="fill:none;stroke:#ed1c24;stroke-dasharray:0 0 2.936 2.936;stroke-miterlimit:10;stroke-width:2px;"></line><polyline points="1567.118 2054.565 1565.707 2053.147 1565.059 2055.039" style="fill:none;stroke:#ed1c24;stroke-miterlimit:10;stroke-width:2px;"></polyline><polyline points="1564.005 2058.113 1563.258 2060.29 1560.742 2062.613 1556.01 2065.691" style="fill:none;stroke:#ed1c24;stroke-dasharray:0 0 3.249 3.249;stroke-miterlimit:10;stroke-width:2px;"></polyline></g><g><polyline points="1485.818 2150.359 1487.57 2149.394 1488.655 2151.074" style="fill:none;stroke:#ed1c24;stroke-miterlimit:10;stroke-width:2px;"></polyline><line x1="1491.054" y1="2154.79" x2="1494.652" y2="2160.365" style="fill:none;stroke:#ed1c24;stroke-dasharray:0 0 4.423 4.423;stroke-miterlimit:10;stroke-width:2px;"></line><polyline points="1495.851 2162.223 1496.935 2163.903 1495.232 2164.952" style="fill:none;stroke:#ed1c24;stroke-miterlimit:10;stroke-width:2px;"></polyline><line x1="1492.217" y1="2166.809" x2="1475.63" y2="2177.023" style="fill:none;stroke:#ed1c24;stroke-dasharray:0 0 3.542 3.542;stroke-miterlimit:10;stroke-width:2px;"></line><polyline points="1474.122 2177.951 1472.419 2179 1471.303 2177.34" style="fill:none;stroke:#ed1c24;stroke-miterlimit:10;stroke-width:2px;"></polyline><polyline points="1471.019 2176.918 1469.903 2175.258 1468.183 2176.279" style="fill:none;stroke:#ed1c24;stroke-miterlimit:10;stroke-width:2px;"></polyline><line x1="1465.22" y1="2178.038" x2="1454.847" y2="2184.196" style="fill:none;stroke:#ed1c24;stroke-dasharray:0 0 3.447 3.447;stroke-miterlimit:10;stroke-width:2px;"></line><polyline points="1453.365 2185.076 1451.645 2186.097 1450.602 2184.391" style="fill:none;stroke:#ed1c24;stroke-miterlimit:10;stroke-width:2px;"></polyline><polyline points="1448.453 2180.875 1445.452 2175.968 1445.452 2159.06" style="fill:none;stroke:#ed1c24;stroke-dasharray:0 0 4.12 4.12;stroke-miterlimit:10;stroke-width:2px;"></polyline><polyline points="1445.452 2157 1445.452 2155 1443.452 2155" style="fill:none;stroke:#ed1c24;stroke-miterlimit:10;stroke-width:2px;"></polyline><polyline points="1439.774 2155 1437.774 2155 1437.774 2153" style="fill:none;stroke:#ed1c24;stroke-miterlimit:10;stroke-width:2px;"></polyline><line x1="1437.774" y1="2148.705" x2="1437.774" y2="2125.083" style="fill:none;stroke:#ed1c24;stroke-dasharray:0 0 4.295 4.295;stroke-miterlimit:10;stroke-width:2px;"></line><polyline points="1437.774 2122.935 1437.774 2120.935 1439.774 2120.935" style="fill:none;stroke:#ed1c24;stroke-miterlimit:10;stroke-width:2px;"></polyline><line x1="1443.172" y1="2120.935" x2="1448.269" y2="2120.935" style="fill:none;stroke:#ed1c24;stroke-dasharray:0 0 3.398 3.398;stroke-miterlimit:10;stroke-width:2px;"></line><polyline points="1449.968 2120.935 1451.968 2120.935 1451.968 2122.935" style="fill:none;stroke:#ed1c24;stroke-miterlimit:10;stroke-width:2px;"></polyline><line x1="1451.968" y1="2126.941" x2="1451.968" y2="2164.997" style="fill:none;stroke:#ed1c24;stroke-dasharray:0 0 4.006 4.006;stroke-miterlimit:10;stroke-width:2px;"></line><polyline points="1451.968 2167 1451.968 2169 1453.72 2168.035" style="fill:none;stroke:#ed1c24;stroke-miterlimit:10;stroke-width:2px;"></polyline><line x1="1457.286" y1="2166.071" x2="1484.035" y2="2151.341" style="fill:none;stroke:#ed1c24;stroke-dasharray:0 0 4.072 4.072;stroke-miterlimit:10;stroke-width:2px;"></line></g><g><polyline points="1451.806 2038.097 1451.806 2040.097 1449.806 2040.097" style="fill:none;stroke:#ed1c24;stroke-miterlimit:10;stroke-width:2px;"></polyline><polyline points="1447.903 2040.097 1445.903 2040.097 1445.903 2038.097" style="fill:none;stroke:#ed1c24;stroke-miterlimit:10;stroke-width:2px;"></polyline><line x1="1445.903" y1="2034.141" x2="1445.903" y2="1996.559" style="fill:none;stroke:#ed1c24;stroke-dasharray:0 0 3.956 3.956;stroke-miterlimit:10;stroke-width:2px;"></line><polyline points="1445.903 1994.581 1445.903 1992.581 1447.903 1992.581" style="fill:none;stroke:#ed1c24;stroke-miterlimit:10;stroke-width:2px;"></polyline><polyline points="1449.806 1992.581 1451.806 1992.581 1451.806 1994.581" style="fill:none;stroke:#ed1c24;stroke-miterlimit:10;stroke-width:2px;"></polyline><line x1="1451.806" y1="1998.537" x2="1451.806" y2="2036.119" style="fill:none;stroke:#ed1c24;stroke-dasharray:0 0 3.956 3.956;stroke-miterlimit:10;stroke-width:2px;"></line></g></g></g><g id="border"><polygon points="1060.161 2353.839 1060.161 2490.097 1191.258 2490.097 1191.258 2442.613 2203.903 2442.613 2203.903 1473.839 2235.903 1473.839 2235.903 1279.258 1811.129 1194.613 1811.129 1012.935 1264.548 1012.935 1264.548 1162.613 1125.194 1162.613 1125.194 1363.903 1095.258 1363.903 1095.258 1771.129 1171.645 1771.129 1171.645 1946.097 1185.581 1946.097 1185.581 2081.323 1061.71 2081.323 1061.71 2231.516 1010.613 2231.516 1010.613 2353.839 1060.161 2353.839" style="fill:none;filter:url(#drop-shadow-1);stroke:#231f20;stroke-miterlimit:10;stroke-width:10px;"></polygon><path id="outer" d="m1000,1000v1500h1260V1000H1000Zm1235.903,473.839h-32v968.774h-1012.645v47.484h-131.097v-136.258h-49.548v-122.323h51.097v-150.194h123.871v-135.226h-13.935v-174.968h-76.387v-407.226h29.935v-201.29h139.355v-149.677h546.581v181.677l424.774,84.645v194.581Z" style="fill:#0f0f0f;"></path></g></svg>