<svg version="1.1" xmlns="http://www.w3.org/2000/svg" style="display: block;" viewBox="0 0 2048 2048" width="1024" height="1024" preserveAspectRatio="none">
<path transform="translate(0,0)" fill="rgb(0,0,0)" d="M 679.861 350.226 C 706.041 349.033 714.397 356.433 737.25 367.507 L 790.277 392.924 L 980.622 483.604 L 1301.8 634.389 L 1396.55 678.73 C 1412.79 686.357 1429.53 694.052 1445.5 702.093 C 1456.05 707.599 1464.72 713.292 1470.08 724.42 C 1479.44 743.847 1473.21 771.459 1453.58 782.076 C 1429.1 795.311 1403.21 806.918 1377.98 818.842 L 1229.85 888.994 L 736.974 1123.52 L 736.875 1214.75 L 737.011 1477.9 C 779.469 1490.59 820.946 1512.14 836.662 1556.65 C 845.676 1582.69 844.074 1611.23 832.201 1636.09 C 782.899 1738.89 581.047 1735.93 544.7 1623.32 C 536.315 1596.78 538.92 1567.98 551.932 1543.37 C 570.854 1507.2 602.654 1490.48 639.936 1478.6 L 640.23 726.55 L 640.256 499.869 C 640.313 466.447 639.888 433.01 640.153 399.604 C 640.61 390.019 642.59 381.015 647.722 372.758 C 655.751 359.841 665.788 354.261 679.861 350.226 z M 697.76 1614.3 C 710.595 1613.6 765.335 1605.42 738.824 1580.03 C 729.193 1570.8 696.312 1567.12 682.644 1568.38 C 671.581 1569.6 613.738 1576.64 638.633 1603.04 C 647.612 1612.56 683.978 1616.12 697.76 1614.3 z"/>
<path transform="translate(0,0)" fill="rgb(254,218,61)" d="M 737.004 469.541 C 791.699 494.037 847.252 520.894 901.547 546.513 L 1139.83 659.019 C 1199.72 687.48 1262.29 717.819 1322.8 744.499 C 1261.75 771.94 1195.46 805.319 1134.69 834.523 C 1075.01 863.944 1013.91 892.586 953.846 921.264 C 881.752 956.016 809.483 990.402 737.04 1024.42 L 737.004 469.541 z"/>
</svg>