<svg version="1.1" xmlns="http://www.w3.org/2000/svg" style="display: block;" viewBox="0 0 2048 2048" width="1024" height="1024" preserveAspectRatio="none">
<path transform="translate(0,0)" fill="rgb(245,63,61)" d="M 1068.9 415.501 L 1071.29 416.727 C 1072.89 424.183 1072.25 450.945 1072.23 459.873 L 1072.02 543.252 L 1072.22 547.452 C 1075.52 549.679 1102.07 550.825 1107.77 551.823 C 1296.37 584.848 1458.73 733.178 1494.16 923.548 C 1497.04 939.066 1500.37 958.581 1501.06 974.805 L 1591.22 974.636 C 1597.61 974.617 1626.76 973.957 1631.53 975.255 C 1632.17 977.952 1632.11 977.056 1632.01 979.866 C 1632.07 1005.97 1632.58 1033.94 1632 1059.93 C 1632.06 1062.88 1632.62 1066.12 1631.06 1068.35 C 1618.09 1069.81 1582.65 1068.95 1568.49 1068.87 C 1551.59 1068.78 1515.43 1069.96 1500.2 1067.94 C 1500.32 1083.35 1495.9 1108.22 1492.77 1123.65 C 1474.26 1214.19 1429.93 1297.44 1365.14 1363.34 C 1290.92 1438.87 1178.77 1495.42 1072.25 1501.15 C 1072.23 1504.7 1072.42 1511.83 1072.1 1515.09 C 1072.52 1539.71 1071.83 1564.97 1072.1 1589.67 C 1072.18 1596.9 1072.64 1625.58 1071.61 1631.37 L 1070.27 1632.35 C 1040.61 1631.63 1008.13 1632.27 978.305 1632.38 C 976.323 1619.34 976.906 1586.68 977.113 1571.59 C 977.406 1550.11 976.407 1522.12 977.882 1501.36 C 868.326 1490.1 765.843 1441.97 687.224 1364.84 C 626.755 1304.65 582.619 1223.5 562.641 1140.89 C 557.3 1118.81 551.847 1091.42 551.787 1068.8 L 416.992 1069 C 416.496 1038.18 416.733 1005.62 416.901 974.797 C 458.251 972.323 507.783 976.596 550.647 974.004 C 563.531 871.99 592.301 794.147 659.176 714.062 C 739.366 618.561 854.131 558.729 978.342 547.666 C 976.603 530.332 977.125 508.888 977.182 491.141 C 977.261 466.431 977.196 440.714 978.15 416.06 C 1007.56 414.822 1039.51 417.104 1068.9 415.501 z M 1071.93 759.079 C 1072.28 770.64 1071.94 791.767 1073.03 802.137 L 1058.46 802.01 C 1049.15 802.179 982.746 803.287 978.754 800.775 C 975.486 787.047 976.286 661.744 977.971 646.465 C 883.991 659.048 811.29 696.023 746.291 765.565 C 686.258 829.794 661.634 888.631 648.294 974.507 L 748.359 974.547 C 758.215 974.533 786.344 973.792 794.909 974.979 L 794.943 1068.81 L 698.127 1068.91 C 686.096 1068.9 658.981 1069.62 647.792 1068.31 C 651.074 1089.08 654.78 1112.65 660.522 1132.78 C 684.277 1214.22 734.671 1285.33 803.636 1334.72 C 841.51 1362.22 893.755 1385.59 939.221 1394.91 C 952.69 1397.67 964.72 1399.08 978.004 1401.21 C 976.981 1350.13 976.959 1299.04 977.94 1247.96 C 1008.01 1246.42 1039.39 1248.81 1069.43 1246.76 C 1071.35 1248.14 1071.66 1247.74 1071.75 1249.87 C 1072.4 1264.58 1072.1 1281.1 1072.14 1295.76 C 1072.27 1319.96 1072.27 1344.17 1072.14 1368.37 C 1072.09 1378.35 1072.81 1392.39 1071.73 1401.9 C 1087.41 1398.14 1104.69 1396.97 1120.82 1393.13 C 1252.26 1361.86 1362.2 1253.32 1393.6 1121.62 C 1397.88 1103.68 1400.28 1086.97 1403.05 1068.81 L 1252.34 1068.9 C 1250.49 1058.33 1251.15 1041.24 1251.17 1030.01 L 1251.21 975.081 C 1257.37 974.6 1263.09 974.613 1269.24 974.56 C 1313.69 974.178 1358.38 975.458 1402.8 974.055 C 1390.42 844.039 1297.8 728.148 1180.09 675.298 C 1150.24 661.925 1118.69 652.733 1086.34 647.982 C 1081.98 647.358 1075.41 645.767 1071.77 647.152 C 1072.85 667.718 1071.93 692.246 1072.13 713.127 C 1072.24 724.266 1072.84 748.7 1071.93 759.079 z"/>
<path transform="translate(0,0)" fill="rgb(250,40,28)" d="M 1068.9 415.501 L 1071.29 416.727 C 1072.89 424.183 1072.25 450.945 1072.23 459.873 L 1072.02 543.252 C 1067.16 535.718 1068.71 508.399 1068.69 497.7 L 1068.9 415.501 z"/>
<path transform="translate(0,0)" fill="rgb(250,40,28)" d="M 1072.1 1515.09 C 1072.52 1539.71 1071.83 1564.97 1072.1 1589.67 C 1072.18 1596.9 1072.64 1625.58 1071.61 1631.37 L 1070.27 1632.35 C 1068.14 1619.2 1067.24 1522.81 1072.1 1515.09 z"/>
<path transform="translate(0,0)" fill="rgb(250,40,28)" d="M 1632 1059.93 C 1626.08 1050.68 1629.8 998.515 1629.51 985.095 C 1629.47 983.531 1631.11 981.139 1632.01 979.866 C 1632.07 1005.97 1632.58 1033.94 1632 1059.93 z"/>
<path transform="translate(0,0)" fill="rgb(245,63,61)" d="M 1016.39 893.27 C 1089.37 888.663 1152.36 943.891 1157.33 1016.85 C 1162.31 1089.81 1107.4 1153.07 1034.47 1158.42 C 961.013 1163.8 897.194 1108.41 892.184 1034.93 C 887.173 961.448 942.883 897.909 1016.39 893.27 z"/>
<path transform="translate(0,0)" fill="rgb(250,40,28)" d="M 1069.1 756.13 C 1068.89 741.251 1067.2 657.935 1069.96 647.996 L 1071.77 647.152 C 1072.85 667.718 1071.93 692.246 1072.13 713.127 C 1072.24 724.266 1072.84 748.7 1071.93 759.079 C 1072.28 770.64 1071.94 791.767 1073.03 802.137 L 1058.46 802.01 C 1062.37 800.835 1063.54 801.683 1067.52 799.584 C 1070.36 794.464 1068.68 765.017 1069.1 756.13 z"/>
<path transform="translate(0,0)" fill="rgb(250,40,28)" d="M 1069.43 1246.76 C 1071.35 1248.14 1071.66 1247.74 1071.75 1249.87 C 1072.4 1264.58 1072.1 1281.1 1072.14 1295.76 C 1072.27 1319.96 1072.27 1344.17 1072.14 1368.37 C 1072.09 1378.35 1072.81 1392.39 1071.73 1401.9 C 1070.48 1401.58 1070.41 1401.31 1069.26 1400.49 C 1068.04 1385.53 1068.79 1355.03 1068.88 1339.26 C 1069.06 1309.44 1067.89 1276.1 1069.43 1246.76 z"/>
</svg>