<svg version="1.1" xmlns="http://www.w3.org/2000/svg" style="display: block;" viewBox="0 0 2048 2048" width="1024" height="1024" preserveAspectRatio="none">
<path transform="translate(0,0)" fill="rgb(0,0,0)" d="M 1345.64 397.935 C 1366.24 376.15 1385.29 350.548 1405.82 328.738 C 1422.92 310.564 1444.82 304.216 1469.36 304.051 L 1525.37 303.99 C 1559.42 303.958 1592.67 300.723 1618.77 326.997 C 1644.6 352.997 1642.12 384.325 1642.11 417.984 L 1642.07 478.574 L 1642.09 707.594 L 1642.13 752.579 C 1642.15 784.465 1642.68 810.159 1617.89 835.126 C 1592.3 861.165 1557.24 859.172 1524.93 858.916 C 1464.02 858.434 1427.79 868.276 1388.32 813.327 C 1380.03 801.786 1353.51 772.777 1343.15 762.086 L 1240.13 762.123 C 1241.28 777.081 1240.42 791.807 1240.78 806.629 C 1241.83 848.807 1225.56 881.855 1185.11 899.085 C 1188.85 933.939 1190.98 973.825 1194.09 1009.2 L 1223.96 1372 L 1238.14 1549.16 C 1244.02 1620.94 1263.64 1698.4 1187.52 1742.03 C 1173.65 1749.98 1162.79 1752.53 1147.44 1755.95 C 1096.02 1756.91 1044.59 1757.16 993.159 1756.7 C 961.679 1756.68 928.762 1757.16 897.374 1756.01 C 870.973 1755.04 843.864 1738.95 826.811 1718.95 C 811.571 1701.11 802.281 1678.95 800.236 1655.58 C 798.948 1640.49 802.702 1605.69 803.949 1589.12 L 815.141 1446.85 L 856.785 903.142 C 844.756 898.593 832.228 891.065 823.163 881.888 C 813.285 871.808 806.27 859.28 802.839 845.59 C 798.556 828.495 799.975 796.955 799.98 778.071 L 800.063 689.635 C 742.932 703.757 701.618 719.941 651.972 753.519 C 628.536 769.411 606.47 787.237 586.006 806.809 C 555.474 835.894 537.529 871.403 491.472 874.641 C 447.788 877.711 409.014 845.252 407.072 801.274 C 405.935 775.506 415.37 746.425 423.825 722.447 C 454.076 634.774 500.517 553.56 560.736 483.024 C 654.725 374.971 770.034 314.554 913.232 304.422 C 939.204 302.976 966.831 304.141 992.974 304.095 C 1104.23 303.895 1166.71 290.328 1231.66 397.905 L 1345.64 397.935 z"/>
<path transform="translate(0,0)" fill="rgb(133,92,70)" d="M 1467.04 403.597 L 1546.84 403.894 L 1547.04 759.052 C 1521.43 758.804 1495.82 758.777 1470.21 758.971 C 1452.62 740.857 1436.22 720.647 1417.92 702.547 C 1390.45 675.377 1378.41 668.168 1339.49 668.04 L 1249.71 667.985 C 1220.26 668.009 1185.87 663.54 1163.32 686.103 C 1143.89 705.536 1145.89 728.569 1146.02 753.75 L 1146.09 805.901 L 894.082 805.981 L 894.177 701.047 C 894.187 684.106 894.45 667.216 893.92 650.213 C 892.448 603.077 851.286 589.831 811.209 592.625 C 691.987 600.937 595.131 660.802 517.194 749.039 C 520.268 738.408 525.369 726.675 529.559 716.368 C 594.688 556.154 717.377 422.135 897.61 404.39 C 899.904 404.153 902.331 404.09 904.643 404.069 C 942.065 403.734 979.477 403.588 1016.92 403.809 C 1042.81 404.651 1069.59 401.891 1095.18 406.226 C 1114.65 409.523 1134.09 421.259 1142.53 439.623 C 1148.57 452.963 1151.18 466.759 1162.49 477.044 C 1180.93 493.809 1201.4 494.43 1225.1 494.036 C 1239.15 493.803 1253.98 494.184 1268.25 494.075 C 1295.93 493.861 1323.88 494.448 1351.57 493.705 C 1389.02 493.227 1405.76 472.011 1428.97 446.122 L 1467.04 403.597 z"/>
<path transform="translate(0,0)" fill="rgb(133,92,70)" d="M 951.849 905.926 L 1087.96 905.994 C 1087.89 926.182 1090.81 953.042 1092.46 973.663 L 1100.71 1080.3 L 1132.66 1478.69 L 1141.9 1588.16 C 1143.16 1602.9 1146.61 1633.92 1145.74 1647.66 C 1136.15 1664.82 1112.45 1659.28 1094.5 1659.17 L 975.174 1659.16 C 955.555 1659.18 935.492 1659.57 915.872 1659.08 C 907.812 1658.88 905.195 1655 900.195 1649.28 C 898.331 1626.78 903.523 1578.97 905.461 1554.2 L 916.719 1402.13 C 929.571 1236.81 941.281 1071.4 951.849 905.926 z"/>
</svg>