<svg version="1.1" xmlns="http://www.w3.org/2000/svg" style="display: block;" viewBox="0 0 2048 2048" width="1024" height="1024" preserveAspectRatio="none">
<path transform="translate(0,0)" fill="rgb(0,0,0)" d="M 831.516 214.351 C 859.654 211.648 902.319 222.701 926.227 236.75 C 979.799 268.228 1008.51 312.111 1024.93 370.271 C 1035.41 336.354 1046.69 308.485 1069.19 280.723 C 1099.34 243.174 1141.5 218.96 1189.79 214.853 C 1275.27 207.583 1357.23 272.539 1363.02 359.515 C 1366.42 410.656 1349.1 451.576 1317.07 490.096 L 1459.91 489.871 C 1480.05 489.867 1500.37 489.533 1520.49 490.178 C 1548.79 491.086 1569.24 511.561 1569.16 540.142 C 1569.11 557.116 1569.16 574.431 1569.14 591.502 L 1569.19 686.663 L 1569.24 736.163 C 1569.33 757.804 1571.74 775.58 1554.88 792.481 C 1538.05 809.35 1513.77 806.229 1492.09 806.079 C 1490.9 910.487 1491.93 1017.16 1491.97 1121.73 L 1492.05 1206.24 C 1492.07 1221.15 1492.4 1236.24 1491.17 1251.06 C 1489.72 1268.41 1472.21 1288.94 1454.57 1290.84 C 1426.89 1293.81 1396.88 1292.3 1368.75 1292.35 L 833.254 1292.27 L 671.458 1292.17 C 654.143 1292.16 611.324 1293.48 596.04 1291.77 C 585.037 1290.6 574.781 1285.65 567.025 1277.76 C 547.443 1257.88 552 1228.34 552.005 1202.45 L 552.109 1111.52 L 552.1 806.43 C 530.686 806.387 509.628 808.507 493.16 792.368 C 477.45 776.972 477.432 763.161 477.24 742.935 L 477.113 603.905 C 477.108 586.276 477.042 568.608 477.186 550.986 C 477.808 543.625 477.027 534.734 479.015 527.563 C 490.72 485.341 526.627 489.706 561.352 489.866 C 570.527 489.908 579.25 489.854 587.938 489.855 L 730.751 489.952 C 706.513 465.94 689.608 425.624 685.095 392.018 C 675.258 318.772 715.604 250.554 784.825 224.494 C 800.831 218.468 814.5 216.427 831.516 214.351 z M 916.771 485.715 C 936.96 488.015 957.801 490.223 978.123 490.078 C 972.752 477.232 959.742 441.546 955.769 427.298 C 941.669 376.736 928.909 324.08 875.778 300.294 C 860.607 293.503 845.874 293.691 829.605 294.21 C 741.33 313.827 746.291 412.138 814.666 452.872 C 839.004 467.371 888.402 485.644 916.771 485.715 z M 1071.13 490.137 C 1091.41 489.968 1134.07 487.621 1153.24 482.48 C 1193.62 476.604 1240.41 457.484 1265.27 423.818 C 1308.36 365.464 1267.47 286.714 1192.97 294.324 C 1163.25 299.455 1144.79 311.657 1127.18 336.408 C 1106.44 365.57 1101.28 397.112 1090.92 430.416 C 1084.73 450.32 1077.42 470.256 1071.13 490.137 z"/>
<path transform="translate(0,0)" fill="rgb(167,56,214)" d="M 1063.8 803.854 C 1180.45 805.121 1299.31 803.937 1416.14 803.945 L 1416.09 1214.07 L 1063.8 1214.03 L 1063.8 803.854 z"/>
<path transform="translate(0,0)" fill="rgb(167,56,214)" d="M 635.16 803.932 L 982.731 803.987 C 981.566 847.965 982.709 898.037 982.691 942.364 L 982.758 1214.04 L 635.214 1214.04 L 635.16 803.932 z"/>
<path transform="translate(0,0)" fill="rgb(167,56,214)" d="M 1063.7 570.09 L 1490.67 570.142 L 1490.65 721.937 C 1475.73 722.507 1457.11 722.04 1441.91 722.04 L 1347.34 722.036 L 1063.75 722.007 L 1063.7 570.09 z"/>
<path transform="translate(0,0)" fill="rgb(167,56,214)" d="M 557.876 570.038 C 698.674 571.678 841.768 569.76 982.865 570.189 C 981.857 619.715 982.718 672.171 982.734 721.919 C 938.105 723.389 885.271 722.016 840.113 722.015 L 557.907 722.003 L 557.876 570.038 z"/>
<path transform="translate(0,0)" fill="rgb(0,0,0)" d="M 1632.6 1236.43 C 1686.79 1231.95 1743.32 1286.76 1744.2 1340.74 C 1745.17 1399.73 1707.83 1429.39 1671.29 1469.62 C 1664.1 1477.53 1657.12 1485.16 1650.05 1492.92 C 1590.63 1558.15 1530.77 1622.99 1470.48 1687.42 C 1442.83 1717.16 1416.58 1749.04 1378.15 1763.16 C 1364.98 1767.94 1351.18 1770.79 1337.19 1771.63 C 1320.61 1772.75 1296.47 1772.05 1279.49 1772.04 L 1172.74 1772 L 833.597 1772.01 C 810.885 1772.13 788.174 1772.13 765.462 1771.99 C 750.353 1771.88 733.535 1770.28 718.648 1772.97 C 663.338 1782.93 626.77 1868.37 583.036 1868.96 C 573.332 1869.09 565.637 1866.27 557.705 1860.8 C 541.726 1849.77 521.967 1827.02 507.763 1812.81 L 408.866 1713.72 L 358.801 1663.68 C 349.503 1654.38 338.911 1644.78 331.011 1634.36 C 303.173 1597.67 347.035 1565.84 370.772 1542.22 L 432.631 1480.45 L 506.153 1406.94 C 522.864 1390.3 545.555 1366.61 564.646 1353.61 C 585.496 1339.28 609.578 1330.35 634.731 1327.62 C 681.514 1322.58 735.61 1327.63 783.293 1325.98 C 820.555 1324.69 863.711 1325.21 899.384 1335.13 C 944.106 1347.57 985.879 1373.8 1032.51 1379.91 C 1054.81 1384.43 1079.25 1380.06 1101.23 1381.65 C 1141.04 1384.52 1193.89 1376.35 1231.73 1384.67 C 1249.54 1388.55 1266.19 1396.55 1280.33 1408.04 C 1310.65 1432.76 1322.53 1464.9 1326.37 1502.73 C 1385.24 1445.78 1442.4 1384.69 1501.09 1327.3 C 1524.95 1303.98 1550.94 1273.82 1577.22 1254.3 C 1593.32 1242.35 1612.89 1238 1632.6 1236.43 z M 617.039 1419.46 C 585.019 1434.38 553.088 1471.57 527.737 1496.93 L 414.711 1610.02 C 453.05 1648.26 491.657 1686.23 530.528 1723.92 C 546.635 1739.77 565.901 1760.17 582.253 1774.97 C 626.729 1729.26 654.569 1694.52 724.108 1694 C 769.316 1693.67 815.329 1694.09 860.576 1694.08 L 1156.04 1694.03 L 1253.92 1694.05 C 1313.49 1694.12 1353.26 1699.4 1397.34 1651.51 C 1426.09 1620.28 1455.64 1588.61 1484.25 1557.07 L 1578.59 1453.8 L 1631.51 1395.9 C 1644.57 1381.72 1667.92 1362.62 1665.46 1341.95 C 1663.49 1325.41 1649.92 1318.2 1634.76 1317.37 C 1629.17 1317.85 1622.94 1318.81 1618.63 1322.66 C 1599.94 1339.34 1581.32 1359.29 1563.58 1377.08 C 1516.16 1424.79 1468.42 1472.2 1420.37 1519.29 C 1404.65 1534.7 1372.35 1568.71 1356.03 1580.94 C 1343.81 1590.16 1330.07 1597.17 1315.43 1601.64 C 1283.58 1611.37 1216.01 1608.22 1180.54 1608.22 L 1031.81 1608.23 L 943.895 1608.23 C 928.231 1608.22 906.297 1609.38 892.009 1606.56 C 864.931 1601.21 857.6 1560.49 875.96 1542.01 C 886.938 1530.96 895.272 1528.56 910.315 1528.41 C 929.773 1528.45 949.225 1528.71 968.696 1528.65 L 1127.45 1528.55 C 1142.99 1528.41 1158.52 1528.4 1174.06 1528.52 C 1193.07 1528.7 1220.87 1532.03 1234.45 1516.28 C 1245.4 1503.57 1244.74 1480.69 1231.74 1469.12 C 1227.14 1465.04 1221.52 1462.29 1215.47 1461.14 C 1206.02 1459.38 1182.81 1459.99 1172.26 1460 L 1096.69 1460.12 C 1053.82 1460.19 1013.94 1462.7 972.518 1448.99 C 937.525 1437.69 903.73 1420.78 867.805 1412.75 C 840.011 1406.54 809.728 1407.87 781.3 1408.03 C 741.563 1408.24 701.637 1407.27 661.957 1408.64 C 647.559 1409.14 630.291 1414.11 617.039 1419.46 z"/>
</svg>