<svg version="1.1" xmlns="http://www.w3.org/2000/svg" style="display: block;" viewBox="0 0 2048 2048" width="1024" height="1024" preserveAspectRatio="none">
<path transform="translate(0,0)" fill="rgb(0,0,0)" d="M 1195.42 210.274 C 1243.68 207.657 1266.95 230.034 1299.06 262.268 C 1308.85 272.096 1319.32 282.171 1329.25 291.944 L 1426.28 387.192 L 1553.56 512.409 C 1572.02 530.696 1596.31 553.48 1613.56 572.339 C 1621.46 580.898 1628.35 590.337 1634.1 600.47 C 1638.6 608.476 1642.13 616.34 1644.62 625.282 C 1669.15 713.157 1571.4 746.884 1535.18 810.417 C 1521.79 833.9 1515.48 859.47 1507.67 884.838 L 1472.29 999.811 C 1465.51 1021.91 1459.09 1045.83 1450.33 1067.11 C 1432.98 1109.25 1394.53 1136.84 1360.41 1164.6 C 1331 1188.21 1301.77 1212.03 1272.72 1236.07 L 1144.33 1341.87 C 1124.65 1357.84 1098.8 1380.21 1077.8 1392.7 C 1047.83 1410.52 1007.08 1413.46 973.572 1403.46 C 924.079 1388.69 864.64 1341.93 839.335 1296.84 C 817.078 1257.17 820.827 1206.69 847.559 1170.39 C 860.219 1153.2 875.31 1138.06 889.897 1122.21 L 951.57 1055.35 C 957.192 1049.33 980.277 1026.02 983.109 1019.98 C 996.277 991.917 1000.79 947.457 1009.8 917.881 L 1010.11 916.906 C 989.722 919.89 956.537 918.966 932.674 921.858 C 914.455 922.015 887.828 924.201 869.443 925.52 C 834.157 928.126 798.85 930.446 763.526 932.478 C 750.39 951.201 739.054 972.217 726.988 991.697 C 715.93 1009.55 666.984 1084.18 663.04 1098.6 C 658.76 1114.25 661.68 1132.2 661.891 1148.23 C 662.183 1170.37 661.687 1192.55 662.314 1214.69 C 663.223 1246.82 667.687 1289.37 661.829 1320.21 C 657.992 1340.4 649.823 1358.99 638.062 1375.82 C 614.02 1410.21 572.326 1436.82 530.987 1444.02 C 497.327 1449.88 463.302 1441.15 435.476 1421.58 C 414.284 1406.67 396.271 1385.68 385.226 1362.21 C 376.035 1342.67 372.905 1322.32 368.514 1301.43 C 363.557 1278.48 358.879 1255.46 354.481 1232.39 C 346.481 1191.58 338.412 1150.75 330.623 1109.9 C 321.283 1060.93 338.346 1024.87 355.667 980.839 L 387.635 898.334 L 439.917 763.154 C 464.311 699.92 478.403 641.115 544.686 609.722 C 554.257 605.189 563.932 600.56 573.508 596.02 L 631.63 568.382 L 863.805 459.992 C 904.091 441.171 950.692 423.735 982.093 392.427 C 993.973 380.583 1005.87 368.709 1017.73 356.84 L 1100.51 273.882 C 1133.46 240.834 1147.07 218.403 1195.42 210.274 z"/>
<path transform="translate(0,0)" fill="rgb(251,184,68)" d="M 1203.52 313.986 C 1207.06 313.535 1211.25 313.472 1213.98 315.997 C 1227.85 328.86 1242 343.328 1255.19 356.786 C 1280.72 383.104 1306.44 409.221 1332.37 435.136 C 1375.75 478.783 1419.36 522.207 1463.18 565.406 C 1487.75 589.682 1512.53 613.767 1536.76 638.365 C 1541.8 643.483 1547.92 651.798 1541.88 658.63 C 1516.32 687.558 1485.32 713.054 1459.71 741.795 C 1441.62 762.097 1432.17 800.085 1424.19 826.154 L 1387.09 947.546 C 1379.68 972.068 1372.9 996.669 1363.62 1020.55 C 1350.06 1055.4 1319.78 1074.98 1291.6 1097.42 L 1214.35 1159.47 L 1098.01 1253.52 C 1077.47 1270.14 1057.61 1286.89 1036.09 1302.81 C 1000.07 1329.45 972.711 1292.45 947.952 1270.45 C 930.884 1255.28 923.326 1232.91 939.084 1213.67 C 950.418 1199.83 963.256 1186.51 975.558 1173.22 L 1036.51 1106.88 C 1051.48 1090.71 1068.22 1073.8 1078.86 1054.54 C 1083.43 1046.31 1086.89 1037.51 1089.15 1028.37 C 1092.99 1013.42 1097.14 985.587 1099.77 969.385 C 1104.31 941.461 1111.45 907.99 1112.11 880.204 C 1111.68 863.937 1105.52 847.168 1093.48 836.298 C 1066.93 812.321 1035.57 818.407 1002.93 820.519 C 977.546 822.242 952.156 823.814 926.757 825.233 C 913.639 826.826 892.995 827.525 879.323 828.441 L 782.793 834.864 C 728.594 838.38 700.543 835.095 673.943 890.225 C 671.065 896.188 665.388 905.162 661.919 911.217 L 624.137 976.443 C 613.721 994.189 603.211 1011.88 592.608 1029.51 C 564.051 1077.27 561.835 1085.51 562.008 1140.8 C 562.17 1192.79 564.181 1245.41 563.499 1297.35 C 563.32 1311.02 554.669 1325.49 543.958 1333.79 C 532.774 1342.32 518.551 1345.83 504.683 1343.47 C 492.322 1341.47 481.34 1334.44 474.341 1324.06 C 471.645 1320.07 468.265 1311.46 467.215 1306.57 C 455.535 1252.13 446.575 1197.13 435.668 1142.53 C 433.105 1129.7 430.005 1114.93 428.657 1102.01 C 427.254 1089.16 427.712 1076.17 430.019 1063.44 C 434.165 1040.36 448.753 1008.65 457.929 985.839 C 471.458 952.136 484.817 918.364 498.006 884.527 L 532.983 795.425 C 543.246 769.424 552.987 739.028 569.39 716.498 C 585.835 693.911 612.113 682.831 636.568 671.68 L 690.032 647.33 L 907.776 546.882 L 970.794 517.786 C 983.525 511.885 1004.3 502.737 1015.36 495.463 C 1036.17 481.768 1058.92 456.792 1077.21 438.557 L 1164.52 351.265 C 1173.46 342.32 1194.12 320.569 1203.52 313.986 z"/>
<path transform="translate(0,0)" fill="rgb(0,0,0)" d="M 767.99 1363.7 C 893.635 1356.8 1001.04 1453.15 1007.8 1578.8 C 1014.55 1704.45 918.08 1811.75 792.42 1818.35 C 666.968 1824.95 559.887 1728.67 553.147 1603.23 C 546.406 1477.78 642.554 1370.59 767.99 1363.7 z"/>
<path transform="translate(0,0)" fill="rgb(251,184,68)" d="M 776.437 1458.32 C 849.697 1456.5 910.597 1514.34 912.55 1587.6 C 914.502 1660.85 856.77 1721.86 783.517 1723.94 C 710.079 1726.03 648.888 1668.12 646.93 1594.68 C 644.972 1521.23 702.992 1460.15 776.437 1458.32 z"/>
</svg>