<svg version="1.1" xmlns="http://www.w3.org/2000/svg" style="display: block;" viewBox="0 0 2048 2048" width="1024" height="1024" preserveAspectRatio="none">
<path transform="translate(0,0)" fill="rgb(0,0,0)" d="M 497.158 438.296 C 516.681 437.217 543.567 437.99 563.546 437.999 L 683.944 437.963 L 1059.86 438.018 L 1384.1 438.027 L 1488.69 437.937 C 1506.19 437.922 1530.35 437.235 1547.47 438.449 C 1580.61 441.066 1611.32 456.826 1632.77 482.219 C 1645.95 497.509 1655.11 515.833 1659.45 535.543 C 1663.52 554.815 1662.47 581.841 1662.49 602.245 L 1662.41 691.156 C 1662.38 720.495 1663.48 750.383 1662.24 779.638 C 1660.97 809.46 1637.6 829.562 1608.08 826.21 L 1607.99 1325.02 L 1608.05 1437.07 C 1608.08 1509.97 1616.46 1562.1 1544.45 1604.29 C 1524.8 1614.22 1508.01 1617.8 1486.08 1617.8 C 1417.37 1617.8 1348.62 1617.68 1279.91 1617.69 L 843.611 1617.69 L 643.234 1617.72 L 585.432 1617.81 C 540.786 1617.88 513.539 1616.31 478.99 1583.25 C 438.882 1544.88 445.045 1495.56 445.054 1445.15 L 445.228 1318.48 L 445.047 1007.77 C 445.409 947.45 445.334 887.123 444.822 826.8 C 430.909 826.855 418.96 826.864 406.965 818.31 C 396.572 810.843 389.553 799.569 387.437 786.948 C 385.415 774.941 386.018 757.737 386.04 745.056 L 386.164 683.6 L 386.056 598.588 C 386.046 579.953 385.255 555.743 388.206 538.079 C 391.334 519.569 398.692 502.03 409.708 486.828 C 431.664 456.472 461.376 443.872 497.158 438.296 z"/>
<path transform="translate(0,0)" fill="rgb(90,148,91)" d="M 1213.92 826 L 1521.6 826.048 L 1521.78 1339.5 L 1521.85 1442.88 C 1521.88 1464.72 1525.84 1501.67 1511.98 1519.54 C 1504.87 1528.7 1491.02 1531.15 1479.83 1531.13 C 1415.04 1530.98 1350.23 1531.02 1285.43 1531.02 L 879.521 1531.04 L 664.733 1531.01 L 600.336 1531.12 C 579.782 1531.18 555.459 1535.26 540.133 1519.76 C 534.555 1514.23 531.077 1506.92 530.296 1499.1 C 528.546 1482.09 529.632 1444.76 529.646 1426.51 L 529.692 1288.42 L 529.501 826.009 L 835.945 826.031 L 835.896 920.313 C 835.905 949.418 836.546 968.434 858.116 990.423 C 890.227 1023.16 937.948 1016.74 979.989 1016.78 L 1090.4 1016.74 C 1129.52 1016.65 1162.15 1019.22 1192.16 989.369 C 1219.32 962.344 1214.21 929.208 1214.12 893.841 L 1213.92 826 z"/>
<path transform="translate(0,0)" fill="rgb(90,148,91)" d="M 505.1 520.476 L 506.937 520.407 C 529.1 519.637 555.608 520.358 578.155 520.37 L 715.406 520.441 L 1125.59 520.52 L 1405.42 520.444 L 1493.55 520.352 C 1509.76 520.334 1525.79 520.287 1542.01 520.784 C 1557.46 521.258 1573.76 533.988 1575.6 549.69 C 1577.99 570.099 1576.99 592.6 1576.99 613.316 L 1577.04 742.144 L 1550.6 742.059 L 469.237 742.105 C 468.465 687.547 469.653 632.763 469.095 578.203 C 468.804 549.689 469.481 524.328 505.1 520.476 z"/>
<path transform="translate(0,0)" fill="rgb(90,148,91)" d="M 924.037 826.016 L 1126.89 826.034 L 1126.73 930.033 L 924.083 930.101 C 923.597 895.718 924.014 860.465 924.037 826.016 z"/>
</svg>