<svg version="1.1" xmlns="http://www.w3.org/2000/svg" style="display: block;" viewBox="0 0 2048 2048" width="1024" height="1024" preserveAspectRatio="none">
<path transform="translate(0,0)" fill="rgb(0,0,0)" d="M 987.198 242.414 C 994.461 241.393 1017.62 241.797 1025.49 241.81 C 1121.81 242.451 1215.84 271.28 1295.96 324.739 C 1401.02 395.374 1473.96 504.599 1498.96 628.695 C 1513.53 702.32 1512.65 783.884 1486.79 855.071 C 1455.65 940.799 1405.31 1020.3 1356.53 1096.9 C 1314.34 1163.17 1269.12 1227.36 1225.45 1292.62 C 1304.19 1305.29 1411.63 1345.76 1472.79 1397.98 C 1546.63 1461.01 1552.74 1569.36 1483.09 1639.27 C 1379.26 1743.5 1201.42 1777.24 1060.57 1783.19 C 1039.51 1786.3 992.878 1784.31 970.83 1783.18 C 841.437 1776.53 700.469 1749.33 594.991 1669.51 C 556.009 1640.02 522.269 1596.14 516.742 1546.52 C 500.778 1407.35 638.667 1340.16 750.682 1307.29 C 771.14 1301.29 796.586 1293.89 817.832 1291.54 C 799.659 1264.05 779.769 1236.48 761.125 1209.07 C 716.096 1144.06 673.261 1077.56 632.694 1009.67 C 603.937 960.974 575.161 909.626 556.662 856.06 C 544.687 821.526 537.266 785.577 534.585 749.124 C 525.068 631.068 571.769 500.224 648.977 411.384 C 739.473 307.256 851.133 253.086 987.198 242.414 z M 1045.51 872.975 C 1126.09 860.734 1181.63 785.675 1169.77 705.041 C 1157.9 624.407 1083.11 568.519 1002.42 580 C 921.19 591.558 864.846 666.963 876.787 748.137 C 888.727 829.31 964.398 885.298 1045.51 872.975 z"/>
<path transform="translate(0,0)" fill="rgb(0,182,199)" d="M 986.723 324.418 C 996.306 323.341 1015.37 323.484 1025.15 323.563 C 1110.71 323.873 1193.89 351.824 1262.27 403.251 C 1345.28 465.191 1408.06 564.071 1422.83 667.026 C 1431.38 725.303 1425.28 784.793 1405.07 840.121 C 1385.94 894.092 1345.11 960.343 1313.77 1009.69 C 1279.06 1063.61 1243.8 1117.18 1208 1170.38 C 1171.37 1225.55 1134.27 1280.41 1096.72 1334.95 C 1078.87 1360.81 1060.28 1388.58 1041.51 1413.57 C 1034.9 1422.21 1032.11 1426.47 1022.78 1432.25 C 1020.76 1430.93 1018.82 1429.49 1016.96 1427.95 C 1002.63 1416.04 981.092 1382.97 969.612 1366.31 L 920.724 1294.97 C 870.957 1222.9 821.925 1150.32 773.635 1077.25 C 731.631 1013.82 689.964 949.79 656.325 881.483 C 584.443 735.518 615.5 585.669 717.797 464.394 C 785.168 383.718 881.994 333.321 986.723 324.418 z M 1045.51 872.975 C 1126.09 860.734 1181.63 785.675 1169.77 705.041 C 1157.9 624.407 1083.11 568.519 1002.42 580 C 921.19 591.558 864.846 666.963 876.787 748.137 C 888.727 829.31 964.398 885.298 1045.51 872.975 z"/>
<path transform="translate(0,0)" fill="rgb(0,0,0)" d="M 1001.86 497.671 C 1128.63 485.42 1241.29 578.346 1253.38 705.133 C 1265.48 831.92 1172.41 944.468 1045.61 956.4 C 919.03 968.312 806.725 875.446 794.655 748.883 C 782.584 622.321 875.31 509.9 1001.86 497.671 z M 1045.51 872.975 C 1126.09 860.734 1181.63 785.675 1169.77 705.041 C 1157.9 624.407 1083.11 568.519 1002.42 580 C 921.19 591.558 864.846 666.963 876.787 748.137 C 888.727 829.31 964.398 885.298 1045.51 872.975 z"/>
<path transform="translate(0,0)" fill="rgb(0,182,199)" d="M 1181.62 1365.62 C 1213.53 1366.02 1263.05 1385.32 1294.37 1395.56 C 1451.13 1446.81 1528.5 1552.18 1335.51 1640 C 1290.89 1659.68 1240.87 1675.07 1191.61 1684.55 C 1024.66 1716.66 806.02 1705.74 658.135 1613.33 C 634.858 1598.87 603.489 1569.19 599.279 1540.52 C 583.8 1435.15 776.176 1380.37 850.952 1366.32 C 854.866 1365.82 862.015 1364.81 865.461 1367.23 C 871.58 1371.56 875.849 1378.19 880.063 1384.27 C 910.42 1428.05 941.077 1471.64 970.685 1515.92 C 978.815 1528.08 987.174 1539.62 998.126 1549.45 C 1006.42 1556.9 1013.58 1559.77 1024.1 1562.34 C 1053.36 1554.62 1077.88 1510.4 1094.43 1486.35 L 1147.81 1409.65 C 1157.25 1395.92 1169.26 1376.01 1181.62 1365.62 z"/>
</svg>