<svg version="1.1" xmlns="http://www.w3.org/2000/svg" style="display: block;" viewBox="0 0 2048 2048" width="1024" height="1024" preserveAspectRatio="none">
<path transform="translate(0,0)" fill="rgb(0,0,0)" d="M 934.165 277.55 C 944.86 278.845 977.664 278.008 990.661 277.995 L 1107.05 277.871 C 1115.94 277.854 1124.93 277.834 1133.81 277.903 C 1178.58 278.246 1172.17 317.862 1172.07 349.388 L 1171.92 427.034 L 1172.04 689.089 C 1215.48 687.53 1266.23 688.754 1310.17 688.748 C 1303.19 670.824 1299.7 651.732 1299.89 632.499 C 1300.39 581.378 1321.21 532.558 1357.77 496.817 C 1468.09 388.208 1650.05 450.303 1680.7 599.114 C 1693.82 662.828 1667.86 730.036 1621.28 773.892 C 1594.27 799.319 1549.5 822.879 1511.29 822.003 C 1519.24 831.898 1528.33 846.907 1535.52 858.004 L 1573.24 915.994 C 1608.15 915.578 1643.38 916.157 1678.26 915.94 C 1736.51 915.577 1786.38 909.151 1824.17 963.152 C 1840.36 985.96 1846.79 1014.28 1842.03 1041.84 C 1836.9 1070.73 1820.2 1096.27 1795.8 1112.56 C 1781.41 1122.23 1765.02 1128.53 1747.86 1130.97 C 1732.67 1133.14 1701.25 1132.24 1685.02 1132.22 L 1573.94 1132.12 L 1513.15 1132.06 C 1464.75 1132.13 1463.84 1131.77 1436.61 1087.74 C 1428.96 1075.37 1419.14 1060.63 1411.12 1048.12 L 1372.85 1116.63 C 1365.92 1128.95 1357.65 1144.58 1349.96 1156.12 C 1379.58 1203.45 1408.92 1250.97 1437.96 1298.66 C 1447.86 1314.95 1460.44 1334.28 1469.73 1350.48 C 1478.78 1366.27 1487.83 1399.48 1493.64 1418.39 L 1526.04 1526.08 L 1546.88 1595.08 C 1557.36 1629.81 1567.29 1655.68 1556.19 1692.01 C 1544.67 1729.67 1517.33 1756.85 1478.58 1765.81 C 1458.4 1770.48 1441.7 1768.17 1422.33 1762.32 C 1420.58 1761.64 1418.83 1760.93 1417.1 1760.2 C 1368.94 1739.8 1360.25 1699.52 1345.04 1655.31 L 1299.5 1523.8 C 1292.25 1502.92 1283.67 1475.46 1274.82 1456.13 C 1270.95 1447.68 1254.46 1424.18 1248.68 1415.62 C 1234.37 1394.23 1219.93 1372.93 1205.37 1351.71 C 1199.21 1342.68 1185.65 1324.04 1181.85 1314.62 C 1174.4 1339.65 1167.97 1370.41 1161.18 1395.92 C 1157.61 1409.37 1148.25 1445.44 1147.03 1458.47 C 1145.23 1477.58 1146.04 1510 1146.04 1530.54 L 1146 1663.14 C 1146.01 1686.23 1147.16 1713.3 1145.23 1736.32 C 1144.78 1741.68 1140.45 1750.28 1136.69 1754.31 C 1126.69 1765.03 1115.57 1766.44 1101.79 1766.54 C 1045.03 1766.96 987.981 1766.78 931.23 1766.79 L 602.378 1766.83 L 392.506 1766.74 L 325.399 1766.77 C 295.293 1766.78 247.402 1773.73 246.116 1729.11 C 245.935 1722.8 246.046 1716.45 246.033 1710.14 L 245.961 1662.33 C 245.762 1584.12 246.299 1505.84 245.895 1427.65 L 245.966 1259.73 L 246.022 795.747 L 245.934 455.88 L 246.014 364.142 C 245.993 346.566 245.755 328.543 246.34 311.03 C 246.618 302.713 250.558 293.637 256.524 287.941 C 261.375 283.309 269.28 278.723 276.048 278.431 C 296.838 277.534 318.493 277.891 339.322 277.903 L 461.977 277.97 L 768.95 277.954 C 822.926 277.935 880.583 278.94 934.165 277.55 z M 720.1 1291.95 C 796.846 1292.14 874.85 1291.18 951.418 1292.07 C 958.375 1252.8 968.15 1212.01 975.915 1172.63 C 979.243 1155.76 985.445 1119.86 991.05 1105.11 C 996.335 1091.19 1016.54 1063.03 1024.88 1048.84 C 1049.3 1007.26 1078.17 965.221 1102.38 923.783 C 1104.48 920.268 1106.81 916.557 1108.72 912.961 C 1089.56 912.99 1070.03 912.821 1050.9 913.126 C 1030.27 942.954 1009.97 972.998 989.976 1003.25 C 963.072 1043.25 944.115 1082.05 891.843 1091.12 C 864.029 1096.05 835.4 1089.57 812.426 1073.13 C 789.556 1056.85 774.041 1032.19 769.255 1004.52 C 764.373 974.599 770.619 945.456 786.92 920.15 C 800.592 898.926 815.384 878.187 829.815 857.475 L 908.366 745.569 C 921.768 726.497 937.365 705.329 949.942 685.905 L 949.957 568.276 L 797.002 568.281 C 772.645 568.283 744.176 568.999 720.09 568.129 L 720.1 1291.95 z M 720.041 1592.03 L 869.446 1591.93 C 894.859 1591.93 925.096 1591.1 950.025 1592.04 C 950.055 1565.59 951.036 1529.56 949.026 1504.08 L 795.863 1504.01 C 776.974 1504.01 737.289 1505.17 720.022 1503.83 L 720.041 1592.03 z"/>
<path transform="translate(0,0)" fill="rgb(75,181,180)" d="M 321.01 355.796 L 1098.97 355.914 L 1099.04 688.097 L 1025.98 688.144 C 1025.23 651.049 1026.56 612.805 1026.03 575.59 C 1025.12 559.034 1027.82 540.048 1024.83 523.861 C 1020.51 500.425 998.105 492.195 977.597 492.039 L 782.728 492.101 L 721.523 492.079 C 709.361 492.077 696.676 491.454 685.06 492.818 C 643.516 497.694 647.603 534.175 648.069 565.679 C 648.277 579.782 648.146 594.197 648.147 607.961 L 648.145 770.602 L 648.112 1293.59 C 629.174 1295.62 613.477 1300.93 597.68 1311.89 C 573.403 1328.41 556.801 1354.01 551.616 1382.92 C 540.384 1448.88 584.629 1498.07 648.176 1508.31 L 648.13 1529.29 L 647.998 1592.53 C 647.973 1604.79 647.071 1620.15 649.319 1632.04 C 653.397 1653.61 670.346 1663.89 691.476 1663.91 C 760.608 1663.98 829.769 1664 898.916 1663.99 L 959.915 1663.98 C 979.887 1663.97 999.96 1667.55 1014.58 1652.34 C 1029.9 1636.42 1026.14 1608.25 1026.1 1587.78 L 1025.89 1507.73 L 1076.12 1507.93 L 1076.15 1692.19 L 812.245 1692.04 L 320.914 1692.1 L 321.01 355.796 z"/>
<path transform="translate(0,0)" fill="rgb(0,0,0)" d="M 556.592 956.261 C 612.374 951.775 593.761 1023.92 597.363 1057.01 C 599.808 1079.47 588.22 1095.7 566.405 1100.98 C 559.244 1101.67 552.037 1100.26 545.659 1096.94 C 518.413 1082.55 527.57 1042.56 526.082 1016.94 C 524.515 989.96 525.218 963.846 556.592 956.261 z"/>
<path transform="translate(0,0)" fill="rgb(75,181,180)" d="M 1000.26 760.304 C 1019.53 759.334 1043.03 759.951 1062.77 759.947 L 1174.35 759.943 L 1277.33 759.963 C 1296.05 759.969 1314.62 759.888 1333.4 760.278 C 1351.36 760.652 1358.78 774.729 1373.52 785.776 C 1386.9 795.802 1403.14 802.121 1415 810.592 C 1417.29 812.228 1435.5 840.221 1438.55 844.741 C 1459.42 875.7 1480.47 906.541 1501.68 937.262 C 1508.79 947.561 1533.42 987.363 1544.6 989.474 C 1557.65 991.94 1582.97 991.103 1597.21 991.083 L 1691.93 991.02 C 1706.68 991.024 1721.8 990.73 1736.6 991.002 C 1780.13 991.802 1781.91 1054.66 1739.34 1057.96 C 1728.04 1058.84 1715.54 1057.98 1704.06 1057.94 L 1634.37 1057.96 L 1555.26 1058.03 C 1540.64 1058.04 1525.85 1058.61 1511.32 1057.23 C 1498.77 1056.03 1492.79 1046.34 1486.24 1036.84 C 1469 1011.93 1452.5 986.508 1435.1 961.728 C 1417.86 937.158 1391.78 938.313 1376.19 963.688 C 1369.35 974.831 1363.09 986.479 1356.66 997.86 L 1320.59 1061.6 C 1305.72 1087.78 1290.25 1113.67 1276.2 1140.28 C 1264.06 1163.29 1287.77 1190.03 1299.49 1210.48 C 1321.02 1247.8 1342.84 1284.96 1364.95 1321.94 C 1376.82 1341.78 1389.81 1362.89 1401.14 1382.94 C 1405.94 1391.43 1413.31 1415.47 1416.71 1425.67 L 1441.07 1499.49 L 1472.98 1595.88 C 1477.91 1610.51 1494.76 1654.93 1493.47 1666.49 C 1492.49 1675.15 1488.01 1683.03 1481.07 1688.3 C 1473 1694.52 1462.68 1697.06 1452.63 1695.31 C 1442.5 1693.55 1433.62 1687.5 1428.26 1678.72 C 1423.57 1671.15 1412.35 1634.58 1408.63 1623.69 L 1362.06 1485.73 C 1356.79 1470.08 1344.09 1429.91 1338.07 1416.23 C 1331 1400.16 1297.95 1356.84 1285.55 1339.53 C 1281.88 1333.97 1277.51 1328.34 1273.64 1322.88 C 1249.95 1289.53 1225.53 1256.69 1202.32 1223 C 1195.71 1213.41 1187.99 1203.16 1176.88 1198.63 C 1168.89 1195.28 1159.86 1195.41 1151.97 1198.99 C 1131.62 1208.4 1126.8 1241.55 1121.03 1261.95 C 1111.99 1293.74 1103.17 1325.59 1094.57 1357.51 C 1089.5 1376.34 1084.76 1395.39 1078.74 1413.83 C 1074.54 1426.69 1064.77 1433 1051.47 1433.02 C 1030.7 1433.03 1009.76 1432.92 988.992 1432.92 L 856.894 1432.94 L 723.332 1432.88 C 702.295 1432.89 680.533 1433.23 659.249 1433.01 C 611.781 1432.52 612.734 1375.14 654.005 1365.01 C 660.719 1363.36 672.242 1364.24 679.518 1364.15 C 691.47 1364.01 703.641 1364.16 715.655 1364.16 L 900.69 1364.12 C 927.394 1364.05 954.099 1364.65 980.809 1364.08 C 1018.27 1363.29 1017.77 1327.24 1024.62 1299.97 C 1027.13 1289.98 1029.31 1279.93 1031.58 1269.95 L 1053.13 1174.79 C 1055.66 1163.64 1062.13 1132.11 1066.14 1123.17 C 1072.12 1109.83 1088.95 1085.5 1097.49 1071.74 C 1123.59 1029.22 1149.95 986.868 1176.58 944.683 C 1187.54 927.132 1205.76 901.72 1214.04 883.524 C 1218.2 874.4 1219.37 864.372 1215.7 854.847 C 1212.83 847.393 1206.95 842.193 1199.74 839.017 C 1183.48 831.857 1137.08 835.402 1117.25 835.377 C 1097.1 835.352 1033.97 832.368 1019.54 838.048 C 1015.15 839.776 1011.66 843.608 1008.63 847.106 C 997.342 860.123 987.818 876.369 977.984 890.618 L 922.503 970.66 C 913.232 984.171 897.643 1012.15 882.459 1017.95 C 865.977 1024.25 846.155 1012.48 842.029 995.521 C 839.582 985.466 841.185 980.059 846.303 971.039 C 854.602 956.852 864.538 943.489 873.97 930.041 C 887.698 910.374 901.319 890.632 914.831 870.817 L 960.717 804.213 C 968.84 792.444 977.21 779.779 986.021 768.581 C 989.653 763.966 994.796 761.914 1000.26 760.304 z"/>
<path transform="translate(0,0)" fill="rgb(75,181,180)" d="M 1477.84 517.627 C 1541.59 510.504 1599.1 556.266 1606.48 619.986 C 1613.85 683.706 1568.32 741.396 1504.63 749.025 C 1440.58 756.696 1382.49 710.85 1375.08 646.772 C 1367.66 582.694 1413.73 524.791 1477.84 517.627 z"/>
</svg>