<svg version="1.1" xmlns="http://www.w3.org/2000/svg" style="display: block;" viewBox="0 0 2048 2048" width="1024" height="1024" preserveAspectRatio="none">
<path transform="translate(0,0)" fill="rgb(0,0,0)" d="M 930.867 242.375 C 942.023 240.985 976.239 241.88 988.678 241.9 L 1095.08 241.799 C 1189.69 242.574 1258.97 315.824 1258.09 409.876 C 1282.74 409.999 1307.4 409.999 1332.05 409.875 C 1370.41 409.827 1392.64 404.543 1415.5 441.861 C 1434.08 442.337 1465.16 443.257 1482.94 441.913 C 1571.51 435.221 1639.8 488.857 1640.05 579.857 L 1640 1354.78 L 1640 1577.85 L 1640.12 1643.26 C 1640.14 1656.21 1640.69 1674.89 1638.99 1687.18 C 1635.32 1714.89 1622.56 1740.6 1602.7 1760.28 C 1584.21 1778.44 1560.8 1790.81 1535.37 1795.85 C 1518.55 1799.21 1495.49 1798.19 1477.72 1798.15 L 1405.48 1798.07 L 1118.5 1798.07 L 696.218 1798.07 L 582.208 1798.14 C 560.602 1798.15 534.871 1799.4 513.774 1796.18 C 474.195 1790.12 438.947 1761.78 421.277 1726.32 C 410.85 1705.4 407.986 1685.6 407.936 1662.39 L 407.998 883.938 L 407.95 659.989 L 407.947 596.403 C 407.95 584.13 407.475 566.053 409.188 554.398 C 413.167 526.439 426.123 500.531 446.107 480.576 C 468.207 458.659 497.254 445.129 528.251 442.312 C 539.373 441.346 557.046 441.875 568.579 441.894 L 633.745 442.058 C 657.282 403.692 675.526 409.814 716.134 409.865 L 787.695 410.019 C 790.805 365.072 799.899 327.999 830.91 293.462 C 859.063 262.107 889.565 247.868 930.867 242.375 z"/>
<path transform="translate(0,0)" fill="rgb(95,108,222)" d="M 1409.93 524.091 L 1475.9 523.996 C 1489.3 523.976 1510.86 523.185 1523.11 525.976 C 1532.38 528.015 1540.91 532.577 1547.76 539.159 C 1565.12 556.103 1561.19 581.175 1561.19 603.629 L 1561.14 671.753 L 1561.14 891.774 L 1561.17 1610.75 C 1561.35 1643.46 1568.04 1685 1541.26 1708 C 1521.41 1725.05 1501.26 1722.06 1477.1 1722.05 L 1418.2 1721.99 L 1208.77 1721.96 L 760.603 1721.97 L 615.804 1721.94 C 592.14 1721.95 568.299 1722.25 544.628 1721.98 C 532.053 1721.68 522.632 1719.2 512.102 1711.96 C 485.219 1693.46 489.253 1661.07 489.258 1633.02 L 489.273 1558.78 L 489.304 1295.94 L 489.357 811.314 L 489.328 657.153 C 489.285 629.919 488.997 602.674 489.369 575.445 C 489.758 547.015 506.942 527.723 535.188 524.356 C 565.665 523.02 603.989 524.136 635.103 524.279 L 634.954 599.654 C 634.909 637.84 630.273 677.731 682.481 678.041 L 1149.93 678.001 L 1300.46 678.051 C 1324.15 678.057 1349.02 678.395 1372.72 677.618 C 1381.59 677.327 1391.87 671.532 1398.17 665.02 C 1403.62 659.406 1407.36 652.356 1408.95 644.694 C 1410.66 636.08 1410.07 612.625 1410.06 603.002 L 1409.93 524.091 z"/>
<path transform="translate(0,0)" fill="rgb(0,0,0)" d="M 653.792 1496.18 C 693.651 1494.71 740.763 1495.89 781.267 1495.89 L 1021.58 1495.9 L 1263.46 1495.88 C 1304.81 1495.87 1345.65 1495.94 1387.56 1496.03 C 1423.17 1496.1 1439.84 1528.47 1424.58 1559.77 C 1419.25 1570.7 1407.71 1576.54 1396.26 1579.74 C 1386.41 1580.59 1370.41 1580.22 1360.27 1580.23 L 1299.93 1580.24 L 1108.89 1580.22 L 815.849 1580.22 C 765.883 1580.23 715.632 1580.37 665.656 1580.06 C 657.857 1580.01 648.829 1579.4 642.032 1575.51 C 631.746 1569.57 624.33 1559.68 621.499 1548.14 C 615.195 1523.31 629.329 1502.19 653.792 1496.18 z"/>
<path transform="translate(0,0)" fill="rgb(0,0,0)" d="M 656.957 1256.24 C 705.597 1254.69 761.264 1255.95 810.318 1255.96 L 1098.42 1255.96 L 1292.36 1255.92 L 1354.59 1255.92 C 1373.49 1255.92 1399.98 1252.75 1414.98 1265.23 C 1423.79 1272.64 1429.15 1283.36 1429.81 1294.85 C 1430.57 1306.4 1426.48 1317.74 1418.52 1326.15 C 1407.93 1337.17 1398.11 1338.13 1384.04 1338.53 L 892.14 1338.49 L 740.922 1338.54 C 714.366 1338.56 687.265 1338.83 660.726 1338.27 C 652.721 1338.1 645.008 1335.93 638.359 1331.29 C 629.312 1325 623.134 1315.38 621.186 1304.54 C 619.186 1293.55 621.741 1282.22 628.264 1273.15 C 635.486 1263.27 645.161 1258.31 656.957 1256.24 z"/>
<path transform="translate(0,0)" fill="rgb(0,0,0)" d="M 971.37 778.279 C 982.095 778.148 992.457 782.16 1000.3 789.48 C 1008.98 797.572 1014.01 808.842 1014.23 820.71 C 1014.66 843.085 996.883 857.374 982.697 872.91 C 969.809 886.977 957.013 901.127 944.309 915.359 L 838.645 1032.46 C 819.845 1053.24 801.105 1074.27 782.122 1094.77 C 759.201 1119.53 733.009 1112.09 712.419 1089.82 C 696.495 1072.6 680.061 1055.28 663.735 1038.56 C 652.453 1026.65 640.835 1015.11 629.969 1002.87 C 619.745 991.36 616.747 968.221 626.656 955.88 C 672.783 898.436 710.99 983.127 746.084 1007.15 L 747.283 1007.97 C 759.074 997.933 784.779 967.65 796.576 954.712 L 903.147 837.011 C 913.603 825.353 924.159 813.561 934.619 801.921 C 947.173 787.949 952.171 781.551 971.37 778.279 z"/>
<path transform="translate(0,0)" fill="rgb(0,0,0)" d="M 1093.61 914.209 C 1107.43 913.307 1126.13 913.825 1140.37 913.821 L 1225.58 913.807 L 1330.52 913.827 C 1344.01 913.833 1394.73 912.197 1405.15 917.098 C 1415.6 922.101 1423.63 931.057 1427.47 941.99 C 1436.27 966.509 1422.09 989.337 1398.16 997.077 C 1390.92 998.46 1370.1 998.017 1361.8 998.021 L 1296.02 998.035 L 1170.02 998.016 C 1153.82 998.012 1095.74 1000.12 1084.07 993.975 C 1073.74 988.559 1065.98 979.263 1062.5 968.13 C 1054.89 943.672 1069.74 921.18 1093.61 914.209 z"/>
<path transform="translate(0,0)" fill="rgb(95,108,222)" d="M 940.793 324.349 C 958.552 323.493 979.171 323.966 997.261 323.954 L 1087.58 323.963 C 1094.74 324.005 1107.43 324.179 1114.46 326.012 C 1145.98 334.122 1171.34 358.319 1176.85 391.613 C 1182.64 427.706 1164.05 479.46 1212.8 492.425 C 1220.2 494.393 1228.96 494.053 1236.53 494.124 C 1244.36 494.196 1252.22 494.096 1260.06 494.07 L 1324.69 494.029 C 1323.88 525.435 1324.26 560.526 1324.83 592.024 L 1100.5 591.979 L 713.983 592.012 L 713.992 494.003 L 788.593 494.115 C 798.579 494.121 820.891 494.81 829.853 493.224 C 881.95 484.007 864.321 431.985 869.264 395.808 C 871.098 381.589 876.592 368.089 885.207 356.629 C 898.57 338.753 918.643 327.096 940.793 324.349 z"/>
</svg>