<svg version="1.1" xmlns="http://www.w3.org/2000/svg" style="display: block;" viewBox="0 0 2048 2048" width="1024" height="1024" preserveAspectRatio="none">
<path transform="translate(0,0)" fill="rgb(0,0,0)" d="M 978.636 260.311 C 1400.71 235.353 1762.99 557.532 1787.49 979.635 C 1811.99 1401.74 1489.42 1763.67 1067.29 1787.71 C 645.805 1811.71 284.553 1489.74 260.092 1068.29 C 235.63 646.83 557.207 285.229 978.636 260.311 z M 1062.34 1701.56 C 1436.46 1680.34 1722.39 1359.58 1700.65 985.486 C 1678.91 611.389 1357.75 325.914 983.681 348.184 C 610.361 370.409 325.578 690.791 347.277 1064.14 C 368.976 1437.49 688.956 1722.73 1062.34 1701.56 z"/>
<path transform="translate(0,0)" fill="rgb(0,0,0)" d="M 998.719 466.306 C 1128.91 456.859 1261.61 515.207 1326.06 632.115 C 1377.48 725.382 1385.81 848.926 1342.56 946.949 C 1326.75 982.777 1298.41 1018.92 1270.12 1045.82 C 1257.97 1057.31 1245.31 1068.26 1232.18 1078.63 C 1224.29 1084.89 1216.08 1091.02 1208.27 1097.37 C 1187.58 1114.21 1162.9 1131.7 1149.46 1155.23 C 1133.27 1183.55 1136.08 1219.32 1136.07 1250.71 C 1135.9 1260.86 1136.96 1270.73 1133.79 1280.57 C 1123.69 1311.97 1093.19 1308.21 1066.98 1308.12 C 1053.05 1308.08 1039.33 1308.16 1025.51 1308.03 C 1000.61 1307.82 975.819 1308.15 950.939 1307.93 C 946.619 1307.89 939.784 1306.54 935.762 1305.22 C 925.803 1302.01 917.574 1294.89 912.961 1285.5 C 907.325 1273.93 907.852 1257.88 907.944 1245.2 C 908.36 1187.9 903.465 1136.8 923.689 1081.76 C 965.753 981.572 1060.29 946.954 1122.78 865.496 C 1160.87 815.836 1142.95 748.695 1091.44 713.652 C 1024.43 668.056 930.275 697.682 909.378 778.413 C 903.562 803.232 908.7 834.231 873.733 841.279 C 865.846 842.869 853.886 842.099 845.479 842.11 L 797.332 842.107 L 744.189 842.118 C 726.5 842.111 708.218 844.369 693.306 833.375 C 670.386 816.476 676.566 789.173 678.934 765.19 C 684.839 705.392 706.841 650.522 743.524 602.992 C 792.566 540.189 861.208 495.599 938.523 476.319 C 960.462 470.853 976.565 469.174 998.719 466.306 z"/>
<path transform="translate(0,0)" fill="rgb(173,173,172)" d="M 1003.82 532.615 C 1016.24 531.319 1041.13 531.578 1053.99 532.237 C 1120.91 535.666 1191.68 566.37 1236.44 617.292 C 1288.47 676.484 1309.3 749.592 1305.31 827.17 C 1300.71 916.83 1259.26 973.315 1192.55 1028.23 C 1173.2 1044.15 1152.98 1058.47 1133.94 1075.11 C 1072.72 1128.58 1073.43 1167.78 1068.74 1242.63 C 1035.53 1242.21 1002.32 1242.29 969.118 1242.87 C 969.028 1221.22 969.004 1198.97 969.621 1177.51 C 971.945 1096.71 996.103 1068.18 1052.59 1016.08 C 1111.58 965.555 1191.98 918.556 1205.59 836.984 C 1213.44 789.947 1202.54 746.079 1175.09 707.413 C 1145.83 666.491 1101.43 638.953 1051.77 630.919 C 1002.78 623.085 952.688 635.084 912.566 664.265 C 875.276 690.852 850.093 731.179 842.569 776.354 C 810.712 775.324 774.736 776.034 742.604 776.275 C 760.681 634.398 864.693 545.424 1003.82 532.615 z"/>
<path transform="translate(0,0)" fill="rgb(0,0,0)" d="M 1008.74 1348.66 C 1076.13 1339.81 1137.93 1387.25 1146.8 1454.64 C 1155.67 1522.02 1108.24 1583.84 1040.86 1592.73 C 973.452 1601.62 911.6 1554.17 902.728 1486.76 C 893.857 1419.34 941.327 1357.51 1008.74 1348.66 z"/>
<path transform="translate(0,0)" fill="rgb(173,173,172)" d="M 1015.83 1413.34 C 1047.14 1408.19 1076.69 1429.4 1081.84 1460.71 C 1086.99 1492.01 1065.78 1521.57 1034.48 1526.72 C 1003.17 1531.88 973.6 1510.67 968.45 1479.36 C 963.3 1448.04 984.516 1418.48 1015.83 1413.34 z"/>
</svg>