<svg version="1.1" xmlns="http://www.w3.org/2000/svg" style="display: block;" viewBox="0 0 2048 2048" width="1024" height="1024" preserveAspectRatio="none">
<path transform="translate(0,0)" fill="rgb(28,114,61)" d="M 313.687 241.19 C 322.135 240.354 341.551 240.909 350.816 240.914 L 426.062 240.959 L 665.155 240.996 L 1440.07 240.968 L 1621.4 240.967 L 1679.72 240.971 C 1689.86 240.972 1700.35 240.414 1710.43 241.213 C 1713.89 241.487 1717.37 242.581 1720.5 244.041 C 1728.42 247.732 1735.09 255.281 1738.11 263.431 C 1742.03 274.011 1739.9 379.385 1739.9 398.735 L 1739.89 674.181 L 1739.89 1334.39 L 1739.9 1538.83 C 1739.91 1572.93 1740.02 1607.03 1739.96 1641.13 C 1739.93 1660.62 1734.32 1672.53 1715.16 1679.03 C 1704.56 1680.44 1684.63 1679.87 1673.26 1679.86 L 1602.92 1679.77 L 1360.99 1679.77 L 508.847 1679.79 L 386.165 1679.86 C 365.196 1679.86 343.51 1680.12 322.549 1679.52 C 318.511 1679.41 310.553 1677.75 307.103 1676.4 C 302.019 1674.4 293.489 1665.23 291.772 1660.11 C 289.793 1654.21 288.848 1643.53 288.836 1637.24 C 288.682 1557.63 288.736 1477.87 288.748 1398.27 L 288.795 929.716 L 288.775 498.604 C 288.754 423.43 288.54 348.243 288.932 273.075 C 289.019 256.366 298.809 246.576 313.687 241.19 z M 591.92 1186.02 C 493.976 1186.52 472.543 1234.26 435.64 1313.36 C 426.749 1332.41 415.312 1351.7 406.671 1371.02 L 526.473 1370.94 C 547.626 1370.94 570.997 1371.49 591.893 1370.74 L 591.866 1461.6 C 591.896 1478.13 595.181 1522.68 586.52 1537.16 C 577.291 1552.58 489.687 1635.66 488.18 1641.89 C 508.264 1642.7 532.665 1642.09 553.013 1642.09 L 673.967 1642.08 L 1038.82 1642 C 1048.91 1632.83 1059.69 1620.4 1070.05 1612.01 C 1081.4 1599.84 1094.75 1587.54 1106.72 1576.11 C 1132.97 1551.03 1151.5 1528.74 1190.65 1528.32 C 1227.44 1527.93 1264.44 1528.58 1301.26 1528.02 C 1290.45 1537.07 1275.92 1555.25 1265.81 1566.19 C 1242.94 1590.92 1219.98 1618.52 1196.37 1642.41 C 1207.76 1641.45 1229.59 1642.04 1241.5 1642.04 L 1327.35 1642.04 L 1334.55 1635.12 C 1341.85 1625.31 1368.28 1598.72 1377.88 1588.54 L 1413.09 1551.22 C 1419.83 1544.08 1430.52 1532 1438.02 1526.68 C 1439.38 1475.98 1438.53 1421.79 1438.56 1370.87 L 1438.52 1082.15 C 1438.53 1039.84 1437.64 994.046 1438.81 952.014 L 1349.08 952.265 C 1311.3 952.341 1268.85 958.063 1240.1 927.299 C 1226.68 912.941 1215.63 896.539 1203.47 881.11 C 1187.26 859.238 1168.63 836.583 1153.18 814.484 C 1144 835.661 1130.62 860.83 1120.15 881.665 L 1061.44 998.764 L 1238.67 1354.18 L 1283.38 1444.25 C 1292.42 1462.69 1304.27 1487.91 1314.43 1505.65 C 1294.33 1504.54 1267.45 1505.22 1247.2 1505.32 C 1214.64 1505.48 1184.88 1507.96 1161.23 1480.24 C 1151.23 1468.51 1135.4 1434.33 1127.6 1418.86 L 1080.89 1326.27 L 995.941 1157.9 C 977.2 1120.99 955.937 1080.75 938.533 1043.35 C 928.001 1117.28 920.686 1191.98 911.242 1266.08 C 908.058 1291.06 908.144 1309.75 886.439 1326.51 C 878.834 1332.4 869.796 1336.16 860.256 1337.4 C 850.73 1338.72 834.272 1338.25 824.267 1338.22 L 765.198 1338.07 L 557.969 1338.13 C 529.605 1338.13 491.656 1336.94 463.823 1338.14 C 471.503 1323.21 479.101 1308.25 486.618 1293.24 C 491.31 1283.91 495.973 1273.64 501.239 1264.72 C 530.803 1214.66 588.56 1224.07 638.669 1224.11 L 731.392 1224.22 C 735.617 1224.23 742.326 1223.88 746.311 1224.23 C 803.807 1229.33 798.525 1199.63 803.882 1152.84 L 816.508 1046.04 C 819.035 1023.55 821.858 989.32 827.557 968.243 C 830.897 955.895 846.773 926.063 853.359 912.651 L 914.92 790.299 C 920.04 780.127 936.122 749.819 938.11 740.197 C 934.126 735.417 929.579 733.89 923.391 733.641 C 912.615 733.208 901.353 733.644 890.577 733.822 C 874.27 734.269 857.595 732.412 841.399 734.406 C 822.486 736.735 818.753 752.023 810.617 765.789 C 788.777 802.74 768.336 840.484 747.032 877.727 C 744.591 881.996 739.527 887.92 735.912 891.168 C 724.981 900.881 710.766 906.075 696.148 905.699 C 681.159 905.388 666.933 899.025 656.71 888.058 C 646.043 876.563 642.237 864.559 643.224 849.042 C 644.317 831.855 655.614 815.952 664.086 801.28 L 692.468 752.336 C 709.477 723.055 725.944 693.157 743.951 664.517 C 772.13 619.697 815.303 621.056 861.578 621.114 L 937.441 621.255 L 1033.44 621.433 C 1052.81 621.492 1073.73 621.114 1092.75 622.546 C 1128.23 625.216 1168.67 645.445 1190.94 673.229 C 1202.23 687.322 1213.88 703.292 1224.88 718.022 L 1283.47 796.654 C 1294.01 810.803 1307.03 829.052 1318.37 842.144 C 1355.3 842.196 1403.29 840.751 1438.92 842.286 C 1438.03 817.376 1438.48 790.835 1438.51 765.762 L 1438.59 647.134 L 1438.6 348.231 L 862.728 348.17 L 684.644 348.16 C 654.543 348.154 621.293 348.848 591.552 348.035 C 593.236 422.078 591.778 500.946 591.767 575.508 L 591.821 974.306 C 591.827 1044.46 591.127 1116 591.92 1186.02 z"/>
<path transform="translate(0,0)" fill="rgb(28,114,61)" d="M 1155.25 387.605 C 1223.17 379.838 1284.48 428.732 1292.01 496.677 C 1299.54 564.622 1250.43 625.755 1182.46 633.051 C 1114.82 640.311 1054.06 591.496 1046.56 523.884 C 1039.07 456.272 1087.67 395.334 1155.25 387.605 z"/>
<path transform="translate(0,0)" fill="rgb(0,51,11)" d="M 1070.05 1612.01 C 1069.05 1618.04 1045.48 1639.4 1039.41 1644.65 C 996.682 1645.58 952.543 1645.11 909.704 1645.12 L 699.812 1645.13 L 567.932 1645.22 C 543.818 1645.22 519.171 1645.51 495.077 1644.6 C 491.707 1644.47 490.79 1643.85 488.18 1641.89 C 508.264 1642.7 532.665 1642.09 553.013 1642.09 L 673.967 1642.08 L 1038.82 1642 C 1048.91 1632.83 1059.69 1620.4 1070.05 1612.01 z"/>
<path transform="translate(0,0)" fill="rgb(0,51,11)" d="M 1327.35 1642.04 L 1334.55 1635.12 C 1334.01 1639.57 1330.65 1641.89 1327.14 1644.97 C 1307.63 1645.11 1208.74 1646.92 1196.37 1642.41 C 1207.76 1641.45 1229.59 1642.04 1241.5 1642.04 L 1327.35 1642.04 z"/>
</svg>